<mxfile host="app.diagrams.net" modified="2024-04-27T09:51:08.002Z" agent="Mozilla/5.0 (X11; Linux x86_64) AppleWebKit/537.36 (KHTML, like Gecko) Chrome/113.0.0.0 Safari/537.36" etag="v2pVxpw_uE7kZMEdtuNQ" version="24.2.3" type="github" pages="2">
  <diagram name="Page-1" id="V86qPFi-y_dcqA3TOGde">
    <mxGraphModel dx="1222" dy="475" grid="1" gridSize="15" guides="1" tooltips="1" connect="1" arrows="1" fold="1" page="1" pageScale="1" pageWidth="850" pageHeight="1400" math="0" shadow="0">
      <root>
        <mxCell id="0" />
        <mxCell id="1" parent="0" />
        <mxCell id="Nyb92QQ04ZUrsPORt_9D-3" value="" style="outlineConnect=0;dashed=0;verticalLabelPosition=bottom;verticalAlign=top;align=center;html=1;shape=mxgraph.aws3.cloudfront;fillColor=#F58536;gradientColor=none;" vertex="1" parent="1">
          <mxGeometry x="200" y="909.9399999999998" width="26.5" height="42.88" as="geometry" />
        </mxCell>
        <mxCell id="Nyb92QQ04ZUrsPORt_9D-4" value="" style="outlineConnect=0;dashed=0;verticalLabelPosition=bottom;verticalAlign=top;align=center;html=1;shape=mxgraph.aws3.route_53;fillColor=#F58536;gradientColor=none;" vertex="1" parent="1">
          <mxGeometry x="60" y="915" width="50.5" height="32.75" as="geometry" />
        </mxCell>
        <mxCell id="Nyb92QQ04ZUrsPORt_9D-5" value="" style="outlineConnect=0;dashed=0;verticalLabelPosition=bottom;verticalAlign=top;align=center;html=1;shape=mxgraph.aws3.certificate_manager;fillColor=#759C3E;gradientColor=none;" vertex="1" parent="1">
          <mxGeometry x="185.88" y="780" width="44.75" height="36.5" as="geometry" />
        </mxCell>
        <mxCell id="Nyb92QQ04ZUrsPORt_9D-6" value="" style="outlineConnect=0;dashed=0;verticalLabelPosition=bottom;verticalAlign=top;align=center;html=1;shape=mxgraph.aws3.waf;fillColor=#759C3E;gradientColor=none;" vertex="1" parent="1">
          <mxGeometry x="185.88" y="945" width="16.5" height="33" as="geometry" />
        </mxCell>
        <mxCell id="Nyb92QQ04ZUrsPORt_9D-7" value="ACM" style="text;html=1;align=center;verticalAlign=middle;whiteSpace=wrap;rounded=0;" vertex="1" parent="1">
          <mxGeometry x="178.26" y="810" width="60" height="30" as="geometry" />
        </mxCell>
        <mxCell id="Nyb92QQ04ZUrsPORt_9D-8" value="WAF" style="text;html=1;align=center;verticalAlign=middle;whiteSpace=wrap;rounded=0;" vertex="1" parent="1">
          <mxGeometry x="166.5" y="975" width="60" height="30" as="geometry" />
        </mxCell>
        <mxCell id="Nyb92QQ04ZUrsPORt_9D-9" value="Cloudfront" style="text;html=1;align=center;verticalAlign=middle;whiteSpace=wrap;rounded=0;" vertex="1" parent="1">
          <mxGeometry x="202.38" y="945" width="60" height="30" as="geometry" />
        </mxCell>
        <mxCell id="Nyb92QQ04ZUrsPORt_9D-10" value="S3 Bucket" style="text;html=1;align=center;verticalAlign=middle;whiteSpace=wrap;rounded=0;" vertex="1" parent="1">
          <mxGeometry x="302.5" y="959.94" width="60" height="30" as="geometry" />
        </mxCell>
        <mxCell id="Nyb92QQ04ZUrsPORt_9D-11" value="Route53" style="text;html=1;align=center;verticalAlign=middle;whiteSpace=wrap;rounded=0;" vertex="1" parent="1">
          <mxGeometry x="55.25" y="948" width="60" height="30" as="geometry" />
        </mxCell>
        <mxCell id="Nyb92QQ04ZUrsPORt_9D-12" value="" style="outlineConnect=0;dashed=0;verticalLabelPosition=bottom;verticalAlign=top;align=center;html=1;shape=mxgraph.aws3.s3;fillColor=#E05243;gradientColor=none;" vertex="1" parent="1">
          <mxGeometry x="495" y="909.94" width="30" height="50" as="geometry" />
        </mxCell>
        <mxCell id="Nyb92QQ04ZUrsPORt_9D-13" value="S3 Bucket" style="text;html=1;align=center;verticalAlign=middle;whiteSpace=wrap;rounded=0;" vertex="1" parent="1">
          <mxGeometry x="480" y="959.94" width="60" height="30" as="geometry" />
        </mxCell>
        <mxCell id="Nyb92QQ04ZUrsPORt_9D-2" value="" style="outlineConnect=0;dashed=0;verticalLabelPosition=bottom;verticalAlign=top;align=center;html=1;shape=mxgraph.aws3.s3;fillColor=#E05243;gradientColor=none;" vertex="1" parent="1">
          <mxGeometry x="315" y="909.94" width="35" height="50" as="geometry" />
        </mxCell>
        <mxCell id="Nyb92QQ04ZUrsPORt_9D-17" value="" style="endArrow=classic;html=1;rounded=0;dashed=1;" edge="1" parent="1">
          <mxGeometry width="50" height="50" relative="1" as="geometry">
            <mxPoint x="385" y="915" as="sourcePoint" />
            <mxPoint x="465" y="915" as="targetPoint" />
          </mxGeometry>
        </mxCell>
        <mxCell id="Nyb92QQ04ZUrsPORt_9D-18" value="" style="endArrow=classic;html=1;rounded=0;dashed=1;" edge="1" parent="1">
          <mxGeometry width="50" height="50" relative="1" as="geometry">
            <mxPoint x="460" y="944.9999999999999" as="sourcePoint" />
            <mxPoint x="390" y="946.38" as="targetPoint" />
          </mxGeometry>
        </mxCell>
        <mxCell id="Nyb92QQ04ZUrsPORt_9D-19" value="Replication" style="text;html=1;align=center;verticalAlign=middle;whiteSpace=wrap;rounded=0;" vertex="1" parent="1">
          <mxGeometry x="395" y="909.94" width="60" height="30" as="geometry" />
        </mxCell>
        <UserObject label="&lt;a id=&quot;link-self233-1714209122737-4833&quot; class=&quot;awsui_link_4c84z_7y59r_99 bucket-name awsui_variant-secondary_4c84z_7y59r_168 awsui_font-size-body-m_4c84z_7y59r_432&quot; aria-labelledby=&quot;&quot; data-analytics-funnel-value=&quot;link232-1714209122737-2043&quot; rel=&quot;&quot; href=&quot;https://ap-south-1.console.aws.amazon.com/s3/buckets/ardhanginidesigns.com?region=ap-south-1&quot; style=&quot;background-color: rgb(255, 255, 255); color: var(--color-text-link-hover-8s5z9d, #0a4a74); text-decoration: underline 1px currentcolor; outline: none; outline-offset: 2px; -webkit-font-smoothing: inherit; border-collapse: separate; border-spacing: 0px; box-sizing: border-box; caption-side: top; cursor: pointer; direction: inherit; display: inline; empty-cells: show; font-family: &amp;quot;Amazon Ember&amp;quot;, &amp;quot;Helvetica Neue&amp;quot;, Roboto, Arial, sans-serif; font-size: 14px; font-stretch: normal; font-style: normal; font-variant: normal; font-weight: 400; hyphens: none; letter-spacing: normal; line-height: var(--line-height-body-m-2zx78l, 22px); list-style: outside none disc; tab-size: 8; text-align: start; text-indent: 0px; text-shadow: none; text-transform: none; text-underline-offset: 0.25em; transition-duration: var(--motion-duration-refresh-only-medium-0rwzu1, 165ms); transition-property: color, text-decoration, -webkit-text-decoration; visibility: visible; white-space: normal; word-spacing: 0px; orphans: 2; widows: 2; -webkit-text-stroke-width: 0px;&quot;&gt;ardhanginidesigns.com&lt;/a&gt;" link="&lt;a id=&quot;link-self233-1714209122737-4833&quot; class=&quot;awsui_link_4c84z_7y59r_99 bucket-name awsui_variant-secondary_4c84z_7y59r_168 awsui_font-size-body-m_4c84z_7y59r_432&quot; aria-labelledby=&quot;&quot; data-analytics-funnel-value=&quot;link232-1714209122737-2043&quot; rel=&quot;&quot; href=&quot;https://ap-south-1.console.aws.amazon.com/s3/buckets/ardhanginidesigns.com?region=ap-south-1&quot; style=&quot;background-color: rgb(255, 255, 255); color: var(--color-text-link-hover-8s5z9d, #0a4a74); text-decoration: underline 1px currentcolor; outline: none; outline-offset: 2px; -webkit-font-smoothing: inherit; border-collapse: separate; border-spacing: 0px; box-sizing: border-box; caption-side: top; cursor: pointer; direction: inherit; display: inline; empty-cells: show; font-family: &amp;quot;Amazon Ember&amp;quot;, &amp;quot;Helvetica Neue&amp;quot;, Roboto, Arial, sans-serif; font-size: 14px; font-stretch: normal; font-style: normal; font-variant: normal; font-weight: 400; hyphens: none; letter-spacing: normal; line-height: var(--line-height-body-m-2zx78l, 22px); list-style: outside none disc; tab-size: 8; text-align: start; text-indent: 0px; text-shadow: none; text-transform: none; text-underline-offset: 0.25em; transition-duration: var(--motion-duration-refresh-only-medium-0rwzu1, 165ms); transition-property: color, text-decoration, -webkit-text-decoration; visibility: visible; white-space: normal; word-spacing: 0px; orphans: 2; widows: 2; -webkit-text-stroke-width: 0px;&quot;&gt;ardhanginidesigns.com&lt;/a&gt;" id="HDfnaLrlS0G8cOxsRyLn-6">
          <mxCell style="text;whiteSpace=wrap;html=1;" vertex="1" parent="1">
            <mxGeometry x="277.5" y="879.94" width="195" height="60" as="geometry" />
          </mxCell>
        </UserObject>
        <mxCell id="HDfnaLrlS0G8cOxsRyLn-7" value="site-backup" style="text;html=1;align=center;verticalAlign=middle;whiteSpace=wrap;rounded=0;" vertex="1" parent="1">
          <mxGeometry x="476.25" y="870" width="75" height="30" as="geometry" />
        </mxCell>
        <mxCell id="HDfnaLrlS0G8cOxsRyLn-8" value="" style="endArrow=classic;html=1;rounded=0;" edge="1" parent="1">
          <mxGeometry width="50" height="50" relative="1" as="geometry">
            <mxPoint x="305.63" y="930.88" as="sourcePoint" />
            <mxPoint x="230.63" y="930.88" as="targetPoint" />
          </mxGeometry>
        </mxCell>
        <mxCell id="HDfnaLrlS0G8cOxsRyLn-9" value="" style="endArrow=classic;html=1;rounded=0;" edge="1" parent="1">
          <mxGeometry width="50" height="50" relative="1" as="geometry">
            <mxPoint x="185.88" y="930.88" as="sourcePoint" />
            <mxPoint x="125.88" y="930.88" as="targetPoint" />
          </mxGeometry>
        </mxCell>
        <mxCell id="HDfnaLrlS0G8cOxsRyLn-11" value="" style="endArrow=classic;html=1;rounded=0;" edge="1" parent="1">
          <mxGeometry width="50" height="50" relative="1" as="geometry">
            <mxPoint x="212.75" y="840" as="sourcePoint" />
            <mxPoint x="212.75" y="880" as="targetPoint" />
          </mxGeometry>
        </mxCell>
        <mxCell id="HDfnaLrlS0G8cOxsRyLn-12" value="" style="endArrow=classic;html=1;rounded=0;" edge="1" parent="1">
          <mxGeometry width="50" height="50" relative="1" as="geometry">
            <mxPoint x="84.75" y="979.94" as="sourcePoint" />
            <mxPoint x="85" y="1050" as="targetPoint" />
          </mxGeometry>
        </mxCell>
        <mxCell id="HDfnaLrlS0G8cOxsRyLn-13" value="" style="outlineConnect=0;dashed=0;verticalLabelPosition=bottom;verticalAlign=top;align=center;html=1;shape=mxgraph.aws3.users;fillColor=#D2D3D3;gradientColor=none;" vertex="1" parent="1">
          <mxGeometry x="54.25" y="1050" width="61" height="48" as="geometry" />
        </mxCell>
        <UserObject label="https://ardhanginidesigns.com/" link="https://ardhanginidesigns.com/" id="HDfnaLrlS0G8cOxsRyLn-14">
          <mxCell style="text;whiteSpace=wrap;" vertex="1" parent="1">
            <mxGeometry x="16.5" y="1098" width="210" height="45" as="geometry" />
          </mxCell>
        </UserObject>
        <UserObject label="&lt;span style=&quot;color: rgb(22, 25, 31); font-family: &amp;quot;Amazon Ember&amp;quot;, &amp;quot;Helvetica Neue&amp;quot;, Roboto, Arial, sans-serif; font-size: 14px; font-style: normal; font-variant-ligatures: normal; font-variant-caps: normal; font-weight: 400; letter-spacing: normal; orphans: 2; text-align: start; text-indent: 0px; text-transform: none; white-space: normal; widows: 2; word-spacing: 0px; -webkit-text-stroke-width: 0px; background-color: rgb(255, 255, 255); text-decoration-thickness: initial; text-decoration-style: initial; text-decoration-color: initial; display: inline !important; float: none;&quot;&gt;ardhanginidesigns.com&lt;/span&gt;" link="&lt;span style=&quot;color: rgb(22, 25, 31); font-family: &amp;quot;Amazon Ember&amp;quot;, &amp;quot;Helvetica Neue&amp;quot;, Roboto, Arial, sans-serif; font-size: 14px; font-style: normal; font-variant-ligatures: normal; font-variant-caps: normal; font-weight: 400; letter-spacing: normal; orphans: 2; text-align: start; text-indent: 0px; text-transform: none; white-space: normal; widows: 2; word-spacing: 0px; -webkit-text-stroke-width: 0px; background-color: rgb(255, 255, 255); text-decoration-thickness: initial; text-decoration-style: initial; text-decoration-color: initial; display: inline !important; float: none;&quot;&gt;ardhanginidesigns.com&lt;/span&gt;" id="HDfnaLrlS0G8cOxsRyLn-15">
          <mxCell style="text;whiteSpace=wrap;html=1;" vertex="1" parent="1">
            <mxGeometry x="134.88" y="825" width="195" height="45" as="geometry" />
          </mxCell>
        </UserObject>
        <mxCell id="HDfnaLrlS0G8cOxsRyLn-16" value="" style="rounded=1;arcSize=10;dashed=0;fillColor=none;gradientColor=none;strokeWidth=2;" vertex="1" parent="1">
          <mxGeometry x="45" y="764.88" width="510" height="255.06" as="geometry" />
        </mxCell>
        <mxCell id="HDfnaLrlS0G8cOxsRyLn-17" value="" style="dashed=0;html=1;shape=mxgraph.aws3.cloud;fillColor=#F58536;gradientColor=none;dashed=0;" vertex="1" parent="1">
          <mxGeometry x="30" y="744" width="52" height="36" as="geometry" />
        </mxCell>
        <mxCell id="HDfnaLrlS0G8cOxsRyLn-20" value="" style="endArrow=classic;html=1;rounded=0;" edge="1" parent="1">
          <mxGeometry width="50" height="50" relative="1" as="geometry">
            <mxPoint x="332" y="735" as="sourcePoint" />
            <mxPoint x="330" y="870" as="targetPoint" />
          </mxGeometry>
        </mxCell>
        <mxCell id="HDfnaLrlS0G8cOxsRyLn-22" value="" style="shape=image;imageAspect=0;aspect=fixed;verticalLabelPosition=bottom;verticalAlign=top;image=data:image/png,iVBORw0KGgoAAAANSUhEUgAAAWgAAAFoBAMAAACIy3zmAAAAElBMVEXv7+5h2vz///9R2PyU5PrE7fi6jX0HAAAbgElEQVR42uxdy3biOBAlPPYRInua4D2KzB4w2RNM/v9Xxth6VEmlhwl2ps9pL+aMW5Z8kcol6dYtZbLprvWku/6K28k/0P9A/wP9N4Ne3BiXgn1e+9ZdnO8VV5/T8UF/NS8WrHm9XF361C2OsvmpjDX//Rwb9FEyfXHxmV/3Jk1FLt/GBV0JZi+uOjtdt6gkqMca1COC/oKY728Xl5y6BXfrncYDvZXMubg4pOtuXczNGF1GA10x/2pQJ+r6mBvU5Vig/whGob7E624lVY0fRgLNKcyNhVxjdRd0LVY+AlpdU/XvGbcvgn69Hmqy7pqHap1y3+vd9nm6YiyKmqxbiVCt/RigFwJ8/NiN8LdQXcdHwopyDNAz/f7mxccjR59X+1kRdZGP5G1FA7uzj4FBa+uQq2u7bOISuRCqbsHRRNQulRZ6IcD3w4PW1sFLVbq+gW/sbtZ+3Qpa1NtUlWqTEcODfgGvUqULCOrg1wUGzcXJllbAPoYFXRNvWgPU4uLW3cIFISxdqIKPwUEr8yxDBsBLty6HmFHLtW1rUNDKpL1PHqA+4brWOLj7mc6Fa2nDgAbvQaXWQriYwrpziVwLbrkbBH4dGPQsNI1Zt9b5MF1q50958FruWuPLgUHX5jVuqf3e5IlaqHTTJW5ZjdvHwKArM6BeqcVXugYQXE4JPW6DglbAyFJj1tJ8prVABu21XOkf2Q9Gv/V0obqGLF2bbhV6U2hN5kC23Bm1HHYTsO1A7wKlEtov3Jc1/xDZBPHLoKDVS0J7JGMNd2PY6J/Y7U/Ilgvd3qCg4xs7YyB8f7+toLeLgGavg4JWjjX4sOnb+4ibDbC2FqJlNgLo2n5n9MPagzRdvfG+yyAbsRsUdJUCbfwFP9iOPqRA7wcFzeG2n3zYrI9WHE8rdMu1anB40PscVsQYh6K+6JbfRwDN0qA9/mk/SYJmg4JGc0se06fnb/rh7ieKIUGvu7ngNc6poq7Oe3hI0GYuiD6Mulqs/w7Qc9DVfJkDmg8PWs/i4eAGIEU3WaAvA7Km3bbW3bp6DxciRoOg225U+HTATcA8D7SaMrppKN6y6obrP9APge5hHv8f0HZn2HR1vOVieNDbLNAFIH/l4dd7Os97oNXH/i8BjeJY8prj8oYHzZbRh3H0i++iD2+H99Oqp+Og3VXeb08uOT2tVx5mM7D8ZdCTDNB6YhEcMXtx0JvhQX9EHjaBpKW2bRmLyapNwKCgOxi7jCC0vJoo6T791Q4KmidBc4PUGErn9QKg2SOgn7wb13utO8OklyDdjiu2sRUjkDUR3qOCjGOVZphmI+zGU6BN5x4ga9pudX6PrFFmGnxYLzvK7pYzdPuroMNcHgdWDH4Dv/wml/ce72ltD1rxphep9x/xe6BVJCD0cA2ZMDv67djQLfMRqF4TI6HDSNLldsGnSLc8RiRgG425wM9QlVam78mWDc/2e6ArRN8hDlX+YqCoQAwkTZpp54Loav5KtrwdDzQjQU9ripCu8QL1N+KIm1jEllun7PalCae7oNkYoHkY9Bx9hi7HrjcwuOU67hCfBLoKC0S1uukwxVw/to+ngH5IOkHtoNbaSZ/Pq+NRh7jY6oz1u09RITwkUpF+6eLLKiOlkUVKxm2Q/+K3zEfRe6g48xSxRN9tEghLXPefcv6mRCq7gUG/CEdZczvfu1YkIRvgq8+rswvmH6OoxbTo+XbkUmbitbjlPaMHOpzlKLq81n8VN94XMND1fl4msAvGEBN+bG5H+SBkhbuxE2Bsw8o2ldN19d4PwG5wd56RD641VRo3wZ5xjSTbNAzME69ypJ5+6rUfGPQ81y5Ec3GW93A56Ie4PiYcBpf6ou9Dtd6G46dxzgL1dnY+n7+/1aqsrXn5/v6+nc+JPpc6pfHZoCPdLCBnRzdl4gIy0NmrywCsabCbwdjvw03VZq0asBXZpjg8dxPwRXdzg2D1eZlDzT3dlN7WLNeLdsFCtfX2ZNBHGViy3Zea6xrFseimdAJEe3s7UssWuZo+EXRBpYvd+1jtWTi0jkBTNdK7TZr+9mFLLdJ6AuiCcs7ibLbQBbKOQFPahKyUaHFkZNbrU0CTmBnQvL4LFOUMNMW9vfofyuQOTwFNY25ZBEwS7ONNOfYBeByM+vMJoP20aWF8MrIO9hpvSrM2lp2qSM8tDz8G7aaZNnOXDWEgnabMi4wBzkSpbd0ZIKgQzwaN/UYzcV1VNMBGJCqWFzfR1mDGUGtAF44jkYefgcZpplIcLGlo+sO4hbwkCH5AsY7WnTidncrmjr/pRTrOH3DKO/WwxpIkEdcCkqoblBSxQLOXSf96BPQct/Q5Aew926uH63h+hccDqmWVrqg41s0NmggvHwfNEeaLw5OrW56IX9nbPwLANL+BdFOKg38ANFCqMVleHKqTo1BQOFIIvKdAoXLhOBO0WOhEAP1ZU5g3fV+BmdKZZsmBjKDssb/sskYXAk5J7aPwpJPysU0A9zBvoEaDL0FGdiuvSoJW0fs2Xc22Ah4GqOXbI6CBt9OYN1BLx3YgI9vPSP5uNl5uy3DdrcfrhN77BVBf+oMu4I92SpU1goxsJ/d7fWu3tO3OD9ZVH+1dTqSHaIrfC1CX/UHbr7AZKFrEBrgbnGVfVJ3/4jKSvsxhZiOVZJ4U10b0onzllSr3cbV9t0R1uaATxfW43LsXf4dkNnfZF7Tp6PYzJtVS/GStdIpkm4I4qmQDDOtuyPOQ8Mwu0VLiWk+3KsN504ZW/kAOz44DXmOhvqzMv81YSExp86LLfqBt1OdAPW3mhcpPbp676+MTIYAzi2lKPmsmCHnqBZpH8qaNbleY4b56UTaHFHWkhk0F1QTZlzVW9GWCNnrRwDE0eq2D8vVDJ9ogBaT+cNWUThuASSDVOuYs0DXeZnqg1T7gFeXrh0604aXf8l4tWQKScBNQX/YALZBx+KB1UnPlzWpziiE5uUsAJtRO/DXwqVU54lp8r98sQgysHlzmzWp18ACgCe4PZWAhzbNk4aMAaNC1WdSG5ksOJdKlN1EzQvdNScJFcPqoWfDQhQBryo2LzsjOajdeunRLciRQATnDjiWohpGeHCq+CSjsZi4EekYcDzZxIZHMDvpZu/COAe3dM0D/SW9GUPYeKK3CB4htoD7MHLqyTugSyUxoCladEoiu4bFXir3tSkMHiE3IFMvmM1snFKCkjDksJ9Z6UXqvxsk0yW0INCCNwOwjYhziu8BiygRobjfNQdA1GGNvv+1fr2Re6D5KfIKNbxr0WqSU2ms4WwtQOgvGN0Fde7jKMkoxc332Rw7oIjwu9nYuKLdV54Cu4OFH69SnRQ148OSImJB/bWe2e3d5HBLpPkxdM0g8Tua/B1XuQbV57NSFNZjZkNviwfAm5S7LOOitVVtmgEbkVQi0sQRYGg6VU55nlwib9AINhN1h0HqQS1/USTtqWxee3hYBDY4DSIN+ZzmgNTG3JMhcAvTF9zztCi4WVevT07PwpA9vCQ+wzuvpOTjMKQaamdMicntapEDruHGeeaCeBsvwGGgeBO2vmF+MP4pxilu7FLSlYdBEVnnolEuHJPnI2gRAkWMY9Lv1C7Y06PIErMvBOjwCGkgAs0Gf4qArO/AZoBmVCl/GQVt5ZAboufDpuTB73bgkV6hMC8JMXbuqioN+6dPTkBoMgrYnB+w9oTK9tbV8bCYDXafO4kT3IuO4UdtdIgf0ztsUq3kjAhoQZxmgeerpKVzPQRogeGDy0qMfPM8TGHCeSSEAVjEIugLRM1eoTIA+kYcORLn+F0GdRRoEPUsHrODcV3qaXx/01OUBfc8TCIXtM0HPRfLkTrQZTIs6xYY8KSEWoFgIlnJihFdvqe8Q6Hdn7BPy2b1LyBPuktTxR6cLfK+D2NPwsSMQ0tILuhEmTR7vsA+D5iy5mniMy2M+l0er96a9uTywXO/Lml7jrCmDvYGP1E6wppzFWVPT0ct8fprjfLcQP13yLH4a2qUur3XKFA36RUSp3k04pcpGatxVr3KKH7Wfy8fJDeIEH2TKSh2Ro9fTJrgmekgntiKWJab5OH7SE8XET/X0znHbIHWIXuDQoCuBj4DL03vY6BYJWk/0hUDqGLqrYW8VhgvlkTPejI0FMpCjZ+8Ze3RKC7Ok4n5ful2NeuuPodwqBpO58R8S4pAizgdto6aC2DNvzbKgJvh6RxWHXlyZj+CdBQ+EMw2EjotL/5kZggf6Y9abyKi9H6ylT+5neu/8LcrWRX/9yIble2qY7BBxX4ut/RW0UVB3boVfHP9tHCB4wucrAxhW8cFPfYVXX0Dv4ZYqe7zY/8UU61xrA++aeSLGwCbhI1JtaJ2X/dViHAhtnVJhjz+ZkceOLI5dosjqSlHOXdyIPowWyAHCEZkc2pzLTyxcF1ZcCgYce4Bzc11p5rtjb2eUU4OYy0d0eZUranac2n6CP620FPtdAHKfOsoayi7k9RHQ8FfLN1D6zsBRERmhMDdg14VRrGTVPHwDmNtprT/oKZT0ypUtreDpFxlBx6gCEqxbvqQbmn5Ea1q5uk0EGrLIKH7VS2tqZJs4LUWeHgW94E5mBIy5Cm+SS4F2ps/aGvjdWpAkPrDmSWtNN96f6XmDy5k9ltKI7L8xsMMp6FdlzoKY+x9LOPvCqu8SpCB/4G1O41VTuYwoHQZlcxdOxhL9lxCys+Rcff3bBIhE0TZnnwKNk6VgpvvNzZY4/TC1z1mzNZZdO6yIAZNoiruCJ3UQwraSLuYf5yO6eVvS5V/MsMebwtZhmR3h5nDdNcQ/TqKsRCIFWdqITqQpnVGUYnZa3fPPMz8rGSeNUIJCsCnu6QNfgpifka5KZSO+TV3SiB+i3lO44tLbMYj5KTm2X5JKR/xWpXpS3MWaqhGRsSnO5OkP8vOJicE3KlFT/tfetWyprgJRX5lLl2du28cP4KDz1uhcTfv/v3IDBKgC8lBDbNc1qyfpBLKtEB7Frl0yJlFepe0jXhUgv/Dyh0XVH8BmfeknmnkdiwuWsbKHq/OTf9dXZWPkJlkNYjVR6DkEex0Nsy07LMEXPwy3j2hVhnOzqFcxkeNt78HuP3VPA9E9brw26h2CqIdeQPupcyPH4Xi9jjwe92gpY/RbVBFAT2sSgG4XFnC6Bwt10P/1JyvQNUK/IkfsuilOVNIN5Vylg/SE1BS4CcbNKWETiJKwY+o8tilESUapQUP/oDfJQVeLKxD8UaxlFeBFcycCXbkB/oxqx7WOhwxHm3wFnN+EoJXr4nq4W4xJJrE/OjbdKTHoT+xWXl2lVIe4HTE7nNCMBL5Tg6ax3zJYkt2AW3XehxPdgukSVPwQ6K9wZ2iVdRNzUy/lcMVu0iXv6p16CHSB93fQ1RI4RwOiHRzBegdgcZT7s7RmoywwhHBlbE/Scj0WSuzMTjl2jKxZaM3Q1aWWCLTlvX5Ht8Li+6h51+j+h0CDF6GOhRN4dPOPxgZF97NTgw6cyuiqiG2zWpX1hk34xLqmNmS8IbSNxuMZ/0Kc0DANmai9LwJGGW8IE7Q0kQgLo8ZpZnmtKUHTJEV1zJJ9hO/SlJLkqaALEhrbhVlk60sJekzcRDVuc5TsInMMmWjNNkFMUtA8JmDgs3odmQ7xp+I1YwGLVKCnAdMqRqZz5FoIuaYR0OxfUtAF7h4itEVBiXi4P4nXDE51IzFoVntzgaKu0U71tgX0NinoPGAPxljuZhtpholq8ZpzJxWSGHRDtD9gajpRrn8eaGgD7VIUrVwLb2DmFt12xnoA3ZSjSLjR5EyG9SbQ7MnZoGxeETeqN2WDmg4G+l/Dzfbj+2jhi2LQPGk2KI7pgfGbrfZCThmBTaxFSJ8xmM278FTNirY2DTyi+MEpOeiWzMUQpZo2W/r0ZEt7ZFOYPxt0p4zBaxEzdK8Zg/sHvSSbBdvla4DGITri0gn099NBIxpiObC8CmgXzdCk4PHLQDtTb1YvA3pytqyQXwB62Q00klO7rJ7ee3QE7XTcWj/EAQaXVZcRcZmJm7u8pKChw8i8JPSybQpL3zOf/mi8marttGSfrlxWSTMGQ+siIAiU2zTebLw/z10jBnFydd5KvEaE57oQItICm3bQ/MmgbdCGTSgtPtrb0gBusYZmars7mNveml+e66yZNjsgkT4ovzhyfkPsNwwAetzs6kWRhHMX3KujEuI1swEckCQrW+RmICokEOEtR3cC/j1xzwVF5X0QPYdaHvdsiJ2Axi05F4Pk+6dr91zGbICNohH3eP34Koph3PtNvOZTK9gAW3L2a48S6DnDLkcypIu4RGpuIviTgi6wkim96pw0aEvOzlLjYrSdA3seAj0N9mQtfdaFbM7dVfdpVgE3MRfrzTk/7yJewTa4mrkAG+wmXQIOivRrnrJBSCprXqM85mb+4jvmRJWk7qDm7tkc+qBtBhKAO7QspGXdrwniIpF26SAEWU8hEoVn+B5HFEbuZ9Yq2DAMSBOrKk74Ks6ksPfLIu0UGs2N9XjTgjavFD0JxzjAn4hrj3tRr+al8VpFvJ5BWw22P+Yq6jficdM4gNTmA3N5KmJ6mn2DtoIlmhO/JgmG5CQ0LIsjq01+vuWZxGwkBv3XDReLw44RnqmYx8uSUEwQ7HBYuJCI7QCg0UaQEIIsY/WcI1bWC8VEKadbBVT7AV0byhAb8+x42SR5OgDodV1gEb/Ul52JpjCG9KDrAjBMao542XFdIsvTMKD/xvNftjjGz9FSsB0NAxolqMGhhG1lo6jF6R7Qd82+IWzP+/ayEdTw55bn3rsI0Kd+AxH80qVsgBo2k+FAr2jCNiXz0qWsH9JIkwGlBl2iFi4wqHs07wwE/Q4GBS3nHPrgh8stZV1CeCGzkg4LuoT9I8V0jreWlcHX+seeRsODvv80ux6O18erGhZ0T6dv0G/Qb9Bv0P8L0PfMp599+gb9Bv0G/Qb9Br0enbIsu9ojG51+P+gv4R9cupV/N+jPmMDV8beDjmoZ/Hk5SzdIrP9iSzObK/elLG226tPCKhxd8Tav6bhxryHtjHnKwXitb1sEyF1WwD0eCbVJC/qrTS9w1WDpjR1afg47wClaE1v6btDci+Y18r9w+t2W9kKQz7xTWrLfZOkVkmp5IUtX+8ub17K0NjV/LUtrmpT8EpNbGvqztGof8P1allZRLi251H5dm9ab4tsXs3TRP2i1pEtq6a9YArjZgZVrsWO86uywU3Knl/iDqxwZ/Ohbmu/kcerD0p8haPVYpTMYoxOfy0kXKKGxRSwb1lkWBSfFWv5nsViA3mQsC51u85rK+XQogqkYdoQP5nSHIUKdwHQ9Hq56zsLbXC+HAix2CJfbVy4h6JkPmmQkCBZjZ7qBvvceRGgroBdFlOp0uX3l0sHSlE/lLcZ8Lo3HcKLh5RVp6zHQUUuPvbBZj6xSaWKY1+LzJHRkUc0Prl4U69/SUwraxS0Qhnp1NUeqj5HEIYbe565vHgYdtXRRBTEQWPLTqT4fzMurgkHE4mCXPSTttSksr2tegjS1MIw91RX2Ymmo4voILC4zGF11R6FMvXT3is1FMyCFjWPE3zQD3dVVbNXyJ0teg9JfPKh0QT1YWgW5uFzduSHjLTVpRuXBIaBhYU5/uJfCqyD5nhTXEKp3KD/3zb1+jwC0so7N1a3jdGT/iq5ye3P5aEB8+oKRq0qPx1GAJzJKwyQluh90zNK5idta2v5PoGYquwN7Vf4mfvHfEv2FOHXSmVvyvZlC9GLpyrSW82r73qqsvA7/3G+ogqXQV+tAm0/aPnepR5fHQEcsfeb4SRn3+ziFy3WI003Q87g08EC/2vJBhe3F+7S0Dg5S5luiId3resEZfh+MpvR7oBEky9Wqf0tXZGIxQW5C8KYTvEEbQ/2iD/Q9wEcNrP4sbYj/dvjIXW4WNzIrKPEnZRj01EZi3ge6wWt6cAcTOP3JpPIn+Dmbpqw+n67SfjDry9wGJUVulga7KxuU7s8Cp6lz9Srmt78omqnH1TyJo0Wx+8W9gq4ho8/NzaqJfntl1fdV9ySGLM0tQ713S9f51OXNsmYjyuvKyn/WPQmcpdfc6m2ktzQKhPxEqVEpaLywc4te3SQq0Og1pbY0GMzy5mk0kxLQzMWKDAtCLwAHAB1LRfCNChcuUTAqm6vcOObUZlJRcRkINGpbvVuac3AyDOw4wYVzpI5ty8pkRWBBo8WYRJ27Nv3J0oD2U5rpoYCCxh25PgBZmgqqbFQJbOlREksbZ80Pjyhm5lWCIrrpz5Cl7WJM/R/2CPQXSwMae5jyiDZpfYaUOfILl2/peJrItRhgj+uX+yBSWVo3cE8Ftha0sXRhghblqclAikDzxJa2a0NUGNosLUy4kDrVqIe0tGsf1NIgYsfc7Spxt+moVxDoQ2SJLT2amlUKBb29xg49In5VjcPWDKzH3qPLfHrNg5D0HOntLCcj+UejJv0Z8xjNp8e8JqtErysXCPIm5EhvJ1Y1BIsxrqWyzFItBWi6cjGbce7mAuntxKp2KiDmKjhLZzxcqvVv6b9V+3A3T5Hgd6TqzC4CyVodga60vlKuEcHm6q5uRs2yFvS+ztKR95DA0lqqFAvEjR2qWNWzEDRzlkZfREpLazfeHHkU3BvuCBpbuggcPSksrT23uLvgrMlNGAfNiN9jn9zvUWDRqKVx5d7SprGbWL24bXJLz7iX/SbmYaKg2Udtmx7xMA36JYEvD7w8Q2Pe1ANEOjXuO+StW1CV/btN4MsrvIxOmTUWKvtTP7hkHFvabO4hr6l1ova4E4Dbhx2oPSfi2nlvc/8njYmlZ3QnRPonYfsw6NA/Dd4G5jRsl7n4IBOmvb8z9kF3xpC+bO60QSRo3pN/GrUP52Mmgj/lnNnuE4w9D7TybiPT6tWQ2SjSDvtNl+lUi9d0G05zK2fWxK1cETtI7rvZU0sdwjczx8pZ6qXM5mKLKhkcO9uWU/HZ/HG+h/Bom9XS9WjWJoJQWDS1zLC0dpx5VKLC7EKesirRrPnBetFzHGWwfZzvocVITh47CMTiWhruqt1Jwhq+0v48ydMsr5bjCHQllQbWkQyG8beu1vGCbx639KdZv4yoO0Y+1Tx5470HZreR+dkjbZ190dZvSrUElwvpAUtrHecFutkSCQC7VYmzhlWpKsV+TC3tS1doyvQElWzV+fXPp+WjAjpQ7jMgfSUagVeyRJlC/FlNBRcENBWB0PpME0KTR2ngu4CeScEA/+7PgJdHOR2V+qC5eqaaUmOdkBx7r5FEEFHTA4+r81AWbOXXIMSrmeMDgZHgirl6J9GajQaFI15V1hGd1D+6kemux/I4ULZYLvlgKlf6MSi7kzpNAPWSJdkOQoqb6j6VeU59gI6e/uzkft3iGBOfnO2ko/hYX9VEsgmX4dWy0kWrnkViJubtp5M73GIvcfoG/QYdO/0PN0b0TPJCxjkAAAAASUVORK5CYII=;" vertex="1" parent="1">
          <mxGeometry x="607.5" y="668.5" width="45" height="45" as="geometry" />
        </mxCell>
        <mxCell id="HDfnaLrlS0G8cOxsRyLn-23" value="" style="shape=image;imageAspect=0;aspect=fixed;verticalLabelPosition=bottom;verticalAlign=top;image=data:image/jpeg,/9j/4AAQSkZJRgABAQAAAQABAAD//gA7Q1JFQVRPUjogZ2QtanBlZyB2MS4wICh1c2luZyBJSkcgSlBFRyB2NjIpLCBxdWFsaXR5ID0gODAK/9sAhAAGBAUGBQQGBgUGBwcGCAoQCgoJCQoUDg8MEBcUGBgXFBYWGh0lHxobIxwWFiAsICMmJykqKRkfLTAtKDAlKCkoAQcHBwoIChMKChMoGhYaKCgoKCgoKCgoKCgoKCgoKCgoKCgoKCgoKCgoKCgoKCgoKCgoKCgoKCgoKCgoKCgoKCj/wgARCAKKA2IDASIAAhEBAxEB/8QAHQABAAEFAQEBAAAAAAAAAAAAAAcBBAUGCAMCCf/aAAgBAQAAAADqkAAAAAAAAAAAAAAAAAAAAAAAAApWlQAKVBSoClQAAAAAAAAAAAAAAAAAAAAAAAAAAAAAAAFvgMdTIZ+6AAClQAAAAAAAAAAAACkew1GWn+Y+tskuZpJqAAAAAAAAAAAAAAAp4wZz9qC5l6S9h+8RqUfxxab/ANYb2FKgpUAAAAAAAAAAAAKRJy/eSVBEqdFZ8+fmiziSBsH1rNgAAAAAAAAAAAAAA1Tk7H9AYaFeipEeHl50B589Ql1bPYAAAAAAAAAAAAACJ+Qp936E9d6yyvhbUACAYH7AmgApUAAAAAAAAAAABo/DvUvvFOG6xu7TxAA++W4z7q3UAAAAAAAAAAAAAOKtnzMP2nXmx2ni+/Xy+AHtiI55r3nuQAAAAAAAAAAAAAQRyj9SNvkOdu0tXvpnPlh0rtIFlxr54J3Xv4AAAAAAAAAAAACGOPd26UwupQ717mqfcecsS/su67cBbenrHvL84dSAAAAAAAAAAAAAOCvDqKIrJHPXmcfXE/U+3gAI9gLvAKqFQAAAAAAAAAADDfnf0vrlgRv2v9sLFE4gADif9A/cAAAAAAAAAAAAGgcK9L6aU1rrgB9aBvopUrGcl8mdc7YAAAAAAAAAAAAFnxzFHQuvltf9GAel7CEiZo596Bqv+fZX596HkkAAAAAAAAAAAAWfFcc/E94P6+7LbpyA9bzF8wdN+6Ds/KVbrTIS9Nf7VvilaVAAAAAAAAAAAefGMXyXFucwf1sm7ZfoQDWdJ2CBpNmhh+QuxLHkvD71tUHyn2j6gAAAAAAAAAAAcu89ShiNEnmbLLlL72DqkDU+ZNf2TqDYyB9L6r0O43Tn2NtWn/qgAAAAAAAAAAAEV8V7/tsUybNnMO/SNyrddu+gAD45K3mfznXV7LR+z5aAAAAAAAAAAAFhwNWSvGI+tdi5jzW3x9tU+/YABjOPpvmVzFZX+g077yIAAAAAAAAAABzHzvLlxZxj1bIHOvQMMTWAAe/ga3xl1/uXIub9LeMOguoa0VAAAAAAAAAAGF/PzbN0saaHK/QUWSgAAPDKWRa8R9q5HiXfzVNX/QLPAAAAAAAAAAAc0c6TB8W7Baj2rkKgADnvoRjodiacZb13kSQjzi3obp0AAAAAAAAAAHn+fGT3qxpWka7N1PmIlycjgAc9aDceMnzJY6Baw5to07HfoT61AAAAAAAAAAEYcSy1dW4s48t8r7dmXYD38430/cMzS/yGgxnGfXnOFxlBYxh2rKoAAAAAAAAAAcrQfLlj8h565qk0dLWHyBfRtscaQbrhPkB7F07leNpRqEZTZ1bUAAAAAAAAAAcFeO9WilaVNGzHZtn4tI2+4PXDwB0Jfa9rOP2+32375m0rdKBpfv30AAAAAAAAAALL85pDzniAwmg925K0YWDuiw0zlWRNryP14ype6ZyHJlwDAaH+jF/UAAAAAAAAABovCEs+tFK0VUjie53sKIOykuhpsJa3XOSTLvhxv6bjSpSuPjLuvfgAAAAAAAAACIuM5ktwBgMD3H5+CnNUlSYAHNcN5aQ/QHnE/Y8xAAAAAAAAAAEF8mzJaAGM0bH9ITvYUefMG6zZ9AYbnCM9r1TISBcgibq6eAAAAAAAAAACAuWZe8ALXTdeyd1ieopatKPjnrR50kj0NTiCHbXYt4xsd+8hZAIp6h6BAAAAAAAAAAIE5Wl3xD51bUr3dM3SPcDuO7bFfQTr/wB/F/tFddx17jb70uJCxkeJEyQinqSflQAAAAAAAAAIU5Cl75KY7RLPctqqtsRpsuTvawNqG14TWMNu8sbdg+ctuy+G0Xcs4je6kelaRJ1xOAAAAAAAAAABF/E0qXDw07XMnv8AfUssZamN8ZN0fN6J55DNa3jNgwEtePP1N42G4yeHwsilvFXa0qAAAAAAAAAAGsfn7IuXaDgdr3Rj8Z4gpjMJuMOG/wC6aZmdZ2r2h/43PZblr+Y24xUcd/bVUAAAAAAAAAB8/nTse0tAtZN8dd+ABh89DBd7f8+K70+ybrtP21OQsjSur6x+jH2AAAAAAAAAAOKdJ39rWkShf6vQAWnrEg2XbZNkCD9BvfL52p56xKI0HcO2lQAAAAAAAAADnrmCVfvwivat1122ADB6B43G0ZbM9h4PJc8736wniMljfvdqPmKum+iQAAAAAAAAAA1n8/d9z6P8bK2HxgAa/YeN5JMrwbKksbBzPv33FGq++ubjmTBR/wDoBtIAAAAAAAAAAOIdNkNgtAk77wgLfwvzw1vxmSRmM5/7t1qCZBxcC5X51SUfoj3be4qFQAAAAAAAAACIeNJLyXzFu17LrgLG7yVgePj0MIbkXPx5IcIWX1jG9GOjPsaYwAAAAAAAAAAPng3CSE0uzkTVqBa317jjHa/JUpXzEwl3Xyfl4nyDVt1zRH2W71+wAAAAAAAAAAEWcU7/AJ3B6NLWt+AeN/cY4Y/CfEiyXl4HnqItRyC31mU8bgcXiJw63+qVAAAAAAAAAAA46iSTKRXK+MsQ8764xoMfhbTbsnqP1mvamu/NcblZ/uOb+oJ9AAAAAAAAAAAMRwZ4yFFe/wD3jBrV/mr3FeHl5efn8fNnbnr9fHx8+kuTZKtzSCOdP0BqVAAAAAAAAAABHnEOexmzZbDFngbP1o2PZM9mMhcUssNo2k5i3tekoTm/oqFdXmzZ7D87O3JGAAAAAAAAAAAEN8e02vZsE+/S5+fbqzbPZUKU0ziSSMNHH6OQxo8/6Ds+V2v74ckDqMAAAAAAAAAAAIT5Gz+5YAevve9tKKqVUpp/GO0YrQ+88jyf2do+NzO1XvKehd0qgAAAAAAAAAADluFN914Hh30APjUOOPZpXYcycMds6LoWUkbZoAgvvkAAAAAAAAAAAHPHOMha+DXv0LuaKqVU+dQ5A+Wm9KdD8Pdi3P39fdpCEd9pKgAAAAAAAAAACBOYJFwIMF29uQB86fyRatSljpbjPpKzx1d6zfJE2T8AAAAAAAAAAACD+StouahieqJhoqFGn8p4lq15mbzIRrLkgesSa73nfAAAAAAAAAAAA1nhvAe+cyVSxmzpWiqlVGoc0x1b43YO975DMaYq73Obc3QqAAAAAAAAAAALeIudtEuMvkvXx23swAajz3on3g+2tsAAAAAAAAAAAAAApE3OceLi4yH6EgDVYDkvBwN3gAAAAAAAAAAAAUrStK0AabFWn46Hv0J2AA1qCN8z3E/6LegAFQAAAAAAAAAAAAU/PbqKaADXoL2ffOKOzt7AAAAAAAAAAAAUqUrRWgByXXrMAwkH38l8hz9N4AFQAAAAAAAAAAAAIh5Y/QSoDFwtFV1FXYMuAAAAAAAAAAAAAAALH87u690AWcS8eTJLc01AAAAAAAAAAAAAAAOM9i6cvg+cbiMHw7+kFyAAAAAAAAAAAAAAAEPcb+u57jsWS8sRhta0v3/QW+AAAAAAAAAAAAFAAAPiNI50/AY3x+rvKZrbZw2MAAVAAAAAAAAAAAAAAAAAAAAAAAAAAAAAAAAAAAAAAAAAAAAAAKVKVorQAFli8ftNwPHAbKAAFQAAAAAAAAADVobMtO4ACMuRtc733IcfQv2pKoAAAAAAAAAAAACKeLNj74vgUVUqpXkOEe+NyEBQf19t4AAAAAAAAAAAADT+Bd072MJp+c27zwmPyTR94zrkWEO+MrjWdxthnbzC4/YsHrUiX7w0X42TI34AAAAAAAAAANP4G3PvZzjCPWfG8ndXcmQ9JOxxT5995zkSEe97TjLoGTeVI969kHjzRJg9Yf3DvLF8MSdLnLvWMiAAAAAAAAAAFKtP4F3TvXSODp36c42jTvTXeLeieoOZOce0ZY5FhDu/n/p3OueeXOvpr5r5q7GmPiiLf0O0DjCVeksi3FUAAAAAAAAACygKVPbgbc+9oG5PkqXyX9I4u6U6V5t5o7OlvkSEd30jrSdXPHLvXs2c1c19oyxxhEv6F3HC2qtr7R20AAAAAAAAAAhDkWZOjOD5K7fiji2WO0Vp4xxxd0p0rzbzR2dLfIkI9qce/Hemzc8cu9ezZzVzX2jLHGES/oXHslRxBEVdFdPgAAAAAAAAAGicN9uQrBXaEpefE0adJbrEfS0P8uTb1hyzBHTc8cdRj2RjeSZI6357gTojo7leEeo544njztTRtG631Hhbs2WwAAAAAAAAABosUXcu7SeUSabm5l9YwV3nRa02jV6+sqRR8XNtWm06vSu8aPS6z9pHXzJ27gAAAAAAAAACgAAAAAAAKgAAAAAAAAAAAAAAAAAAAAAAAAAAAAAAAAAAAAAAAAAAAAAAAFFaVUrSopUpVSpSqlSlaVAAAAAf/8QAGgEBAAIDAQAAAAAAAAAAAAAAAAMEAQIFBv/aAAgBAhAAAAAAAAAAAAAAAAAAAAAAAAAAANY8byAAAAAAAAYr19cY2t2AAAAAAABinBoC7aAAAAAAAK9PWfWE2u2AAAAAAAGa1CzmGMzixfAAAAAABlRqyRttRt09gAAAAAAy5sJJLXljzNakAAAAAAOZ0Yp6Fcsz09LcUm9kAAAAABztLEuIawZxLLVl26AAAAAAIuFdl110BnOtyrtS7coAAAAAcmpv1qO8YJ9s66RVbvUAAAAAGPPlnpRVMEm8zWSPma57+QAAAACryBP0abaPNnTOmk/MOxZAAAAAOfzg69aOxDrmfMNulUOlfAAAAAObQM3unUqa2o4UtvowcWq6HRAAAAAOdz1nrdKWjVjilkhkrWOxS4NfodEAAAAAo8zp9e3roig5litYiza6OPN1eneAAAAAIOL2+3CGvItQ7NnRr+Z17U4AAAAA4Nv0O2A52LMWLUmOZxN+7kAAAAAc6l6W1q1bR4t1qdxnz1LodEAAAAANeH1+1GxtjFeafm2JYPNz9TYAAAAAFSL0WiKbXXEUbfevrsAAAAAARdRiKvgM26YAAAAAAF3ZmhgM3+eAAAAAABc3KegL9HGDIAAAAADeeVViDFyrgAAAAAABvLHGGGQAAAAAAAAwyAAAAAAAAGGQAAAAAAAAxkAAAAAAAAAAAAAAAAAAAAAAAAAAAAAAAAAAAAAAAAAAAAAAAAAAAAAAAAAAAAAAAAAAAAAAAAAAAAAAAAAAAAAA/8QAGwEBAAIDAQEAAAAAAAAAAAAAAAECAwQGBQf/2gAIAQMQAAAAAAAAAAAAAAAAAAAAAAAAAAJWurWIAAAAAAAFpy5bSjBggAAAAAACZbGawNbXgAAAAAAFmXZthtkI1cVQAAAAAAsjPtYYy2DDqQAAAAAALQ2s9bIkRo0AAAAAALIbuQpjz47xjwYgAAAAAFu14vJi28phxbNte9cujUAAAAAE9js8dScmYCmPP62TlIAAAAAD0PqHMclebAhOvn9/p/m+gAAAAAJ773Nb5xnpcGOsWnsfa57iIAAAAAMv1jG8njtXaFK41qZPpGWny7EAAAAAe739DzOB2UWjDZa3pdscB4oAAAAB13Vh89174csxiZdbtPdOP5YAAAAA7PpivM8hm2ZwXyKa/m7nf+y5bjwAAAADseoeRxHha/p7V/d0/My16PzOS9L6R6vK8gAAAAAdN2fGchoWvOba6/yPa8ner4Xi2+m+3xvMAAAAAHq/RPnfI5wv1fh+hSMVvE3PreT555IAAAABb6f4Pzykh7jRyTo4b9N9DwfMKAAAAAE9d0fyjz7rK5Xn7vo+ej6N0fLchAAAAAA2PpXC8hlTWZ29XU9rUxbX1XzuK1wAAAAAe9v/AD27Nhm1s+VjpuWxEAAAAABO/wA6nY2gRo781mJgAAAAAE+dVHpSDzPURMWqAAAAABo4zfuE+Z6chUAAAAACurhbuULaG7KUQAAAAAAmmHJkCyIAAAAAAAEwFkQAAAAAAAJQLIgAAAAAAAJgWiAAAAAAAATIRAAAAAAAAAAAAAAAAACUJgAAAAAAJQBKEwAAAAAAEiYmAi1bRNbRAAAAABIQtWUqzFq2rM1AAAAAJQkAAEAAAAAAAAAAAAAAAAAAAAAf/8QAQhAAAQQBAgMEBwYDBwQCAwAAAwECBAUGABEHEhMQFCExFSAiMDJBYBcjJDM2UzRCURYlNUNFUlVAUFSAJkRhYnH/2gAIAQEAAQwB/wDXwphhbuYjGIW/qA/mWkJFdllE3zs4+kyyiX/UwaFkNOX4LSFuGQE6bgMMifUflq3zCmrN2klIctnxLlk3bXRBBbOyi7m79axOiEe8juYjnOd6jXOY7mYqtWFktzC27vYyNq3iVPFs2wjBkNps0prNUZ1+7G+njFGETiGe0Y7/AIixIyuFUi70S4yO0t1Xvkt6j7I4CyCtEAbyEqsAnSER88rIrYmB04UTrIeQrMVpGJ4V4tOxeld51wdHwmjL8Md4tS+HUZ2/c5xWan4Nbxd1EwclsmMaKTpyQkE/WP5XZ0jmtCXrRsZyeBfi+4d05P03kedV1XzCi/jJV9kNjeF3mmXp1WLWljs5gOiIWF1kAHVt566lNEksrIjnEDj2Dy53KaxVYkepqYVSHpwQNH6m6f11zp/XXOmuompQI0wXTlCGZlxgUKRu+sKsYlxST6gnLNArWxzljmYYD3DLhOaMteSFZK0c/wCmL+/g0UfqTS+3kuZWN0rhNd3WHQ4vOt9ibdCLVY9V0o+rytcW8zCNBarYzesVG22W2ngnUdjeKQqZGkciSJml8PPSkT5aV668fXKxphOGVrXjyvDljo+XUtVwkVWqiouy4DmPfuSutX/i/pbNctFRD7vG5S2BzS7WeryuJJlYzhgoyNk2qNKe1twwE6bNiGvbczhqU7+Z2M49KyGUpHucyLW18atiNjwxIMenP/ppV38/eZzjCNR9lXs8GqrVRWqqLw/yr0uBIM5/4/6Uy+9ZQ1Dz+DpDnSLGaquV55WJ44KmAhTIj519c9DePFX71zvNzl1TVZcmuNk3ZCiRgw4w48YaDFp79/Ly96jOZPLwzrHFqpPeorfwUWQWJJGeO9RmxK8HfVLJCbNP9J8SLVbHIyia7cGCwI1fE9L2RBCW7zeEMTxV3UMX05uvtAXR5prAjIsYaouP1Q6erFFFsrtPdv5eXYjVXy10/wD86c1W+5G3ddW11X1LU79IaN03NKGdHLFkikuDMYIckjYxesHBLpaa9Er3bRfpLLc9HXlfEqWsPJK9xSOI9d3saQxGsY1xH12F2stEcZrIrI/D6OifiZxXrKGSjyBzRqvMAjTBGVnwFd8u1jN/FdZHk8KkTpu++lWOZ3Ex68h0jDh5XcxiI7vrytxy4HdVySGN5H+vZzPR9RKl7bqkeyuJBJDQyJRJVRYxW80iFIY3swWz9K43FK9dzfSHErIHVVc2HEfyy9Y3jsm7Lu37qLArqzH4242sHqZkqJukQW+j2843nIc1L5VdYuc5yudjBObG65y+fY1N3azbJEpoyR4qos4IpNjL5RNIeRW4CZ7EdYSmiVcAr+XwlSt8bpGUcUoWGUvuJQByo7wSG84hjYIbWCa1jNX+KwbRjnjakeVaV8ismPjS2cpOEE/kmzYDl8PpDMrFbTI5p99x4xTuubNoPFoZsqNSwRiAxqalyiyyqQ71c7svF3nrqhZ0qGuGvn2KRoREKRdmSzSb26eRGq8+N0YKWGjGIjpHvs2qG2dOR7G/icIl9yyquJvsn0fcye51E2SnguuHsdkLHjTSeGp0p8yS8xPPtlMWXcKJnxMajGNa3y7LsRD004IE3Jw6pXBQthKGrS/9BaBWtvJAx+GgEQwBlb8P0dnpOniFk7sV/dsNrAN8PVw4PfcqjuVPZ9wiKvlqZZvh5hHhFX8P6m/jtv49qIq+WlsXQ84LCM77nWfi6eTyF1iZuvjNY/5/RsuSGHGJIlEaMOaZea8I6NG5hV2pzt6ilb6kleWOV2uF4Oawmn9wxN17OJ0R6AhWQPB9NPZZ1gJY/Uy+S6uzWBK5lRqLum6L4djU2TXFCO8Muvsg7o6ksGWdWCWzbXEtnLfiXXDonUw6v/r9GTJIYcYkiSRow5llB7+VyM5hwGMc9dmoqroy81LTP04jG/E9qaa5rvhci9k7+CPrhaid1sF+frjdsut9WkQU+vPEP8GOXBcZtDwZ6L3cJRnEwoXo8fZxPhq6NEmNTWA3Hf6vupXfiNJ566iayyK2xoZQXq1q8Orfus11eZ2wuKDf71iO1h2Tnx+Vyu5iQYUoM2KOTFIhA/RRHtGxzyORrM7yl95K7vGcra4InmIgxpu6JDFDjP32V2jWso0KPEUmwNNcrV3aqosK1INUbI9tjuU8d3Ku7eF5+WVPjL5+vkNuOlgd5KxSajZ5Wk8DCkBVuXUit376iazS0g2tiw0Bj9+GMghK6WF6qo+y4gssq2REJ5V8qTRXCEROU1fMDYQxSYzuYd8+SOnlvgrtJLe2pF9qxlaPKkSPzzlLrFcblWkkZyI8MPikn4qAvZg2UPopfRkKrq8RGFG0gnI9n0TxMyfrEfUQH/dMar3I1qburIKRBePiXIJSta2OxezGcGU42SbhXMbGo6uMxGhr4yassaqZ4laSGIbskpTUdgoCrzjoZCo9QOXwx83o/Mg/Jnr5NTpdVix+fkJOxu2hOVCQiPb3KXvt3U+9ZjNpPK1qRSBZQ1IaaA2MDdy9vESjVyelIzfHCsg9Ey+hJd+CRUVEVF3SdiVRMMpXR1G+Di9RDcjhxGvf5a4pfn12o0NJNY3bwI5qscrXJsvDTJ+7FbUzn/cfRGf5F6ErOlHd+OVVVd18VpIPSYhyp7erZ/UsDLrhvTNnT3zpDeYOW3zaKvQjWo+SfJ7kxlI6wO1cezuSIrQ2+xg53DHaY284tnPhl6ElhF8jzHEnNktTlUbkexrk8vfPY0jHMeiObl9C6mm8wkVYeB5Jy8lZOf4dvFF346C3VSm0AWreH1GdYae3rh7kXpmt7vJdvO+hp0oUGGaVJdyhv7Q1zammn86aH3k3O9PutEdt4JqX/FG1w8AgsVjOTzmVceRaCmyE6j7YRb7MpEcOyLkOGOra9ZUU7jpw7m99qZNdIXmT+xNxzqiMDtVYE/qtfaSGcjGoxqNamzff2UIFjDJGlN5h3tSemnuAbxTC8pbLYyDYk2k9nEwnNfCZqAnLCCnZbROgXnYn3dHZmp7QE2OvtV0wNhBDLjO5hfQvFe85iDp47vZENxSNGxN3RQNjAaJmnu2TssG8s0ya4dHQuLAb8y/FrChf/MrNX+ZGNIxzHojm4jVFqcnsQORej79R+HqX9SG4r3xzIiPKNwDPG9Nn4fJNLxyGaS5XE1nJutk8vbyE3kG1vZIE04XDd5FGoiOY/wCLhTedM76iQ72PoS5sB1dXJmm+GZJLMlmkndzFx+L4OkOTscu69l2PllI/5cLLBGSZUB66f8S6q4DoWb2L+X7r/oGyQtmjjOeiGc7b/wDvbKkDixyHO5GDO98+xI9rfbrorYUAEYfw6lF79dmL5p23cfdEO1NRTkiyRHA7lLR2I7apjTReX0HxctvGNVCdoA3GMwbfMI2iE1jPhKvy7bgPVi8yfFXTCwJwZQF2JXTg2cIUuMu49vHf5/8AQXNksPiKEpHbD7Js2NBF1JZxhbc54Nm46oPUXmtsjmcu5pRMcw0EBzJE9yHk6yKV3Kjmn32WnZzzmr6hGIRjmO8jjURXDd58JLblNJqyu8PoIj2jG571RrL2wdaXEua/WOg3I866Vdk9RU3TZdT4yxjq3+TF8gNSSF8FJErLKJZgQsMzSJrJcxDXuWPARkiTgttLuYct8zlV3veJVW9JArIbdxwcot4QWiFLVRlym8lewkt6aj0F3aF51jnVanAhMVH2h+osOJHhBQUUTBDtbWFVi55p2s1UZBLyC36UIfd4HEyZ0qyPEavtUI/ApPVvQ7OYZNUs99ZaxZg/MJGmEwg15mfQPEaw7hi8hGrsTVaHoQhs+ZV+Xqyo7JIuR+pUYkZ/KRPARXhejxPcx5bawMPplnynsoqo9zYMixvDVNWR6mvZEip7HuOmv9dOby6ystpXtbYVb+ccLiANURJsJ7VBmVKX4pDxK3IKczdu/wAbZJVE7xQ9YumWNWNPYmQmp3uP3R0pDDdHl5rTgRekQshbXOpshFZBG2KwTJVpOaxvUPJx2pHTVrI7NnEzmf37IDI1dx1g+lCGnz9ScLrRSM+euGth37GAscu5PoHi9O6llDhNXwrxdeYJny0q7r6xGNI1WvajmnqBu8QvVmpIXRzKN+yrwpK1LGcL+bTviX3Cr7G+spyH0E0C91cdamcOzrgyhfDkGEglucetc2OaypLGtVe9xSNb24+5X8O7JOypp51qXlhgVzcZx2PSB3T72VkVilXTyJP84WKeQ1q7qqeCbJ608fSlkb8uEU7pW0qE5fZ+gczmd9yixLvumOj3OQmiL7Pub1m0hj/lg8zueTRHKuzNF+LtyixLUjiTWIrgxzDkAYYLkePt5vY21ZQQWMR8aWznHBmyMNuSwpfMWBClgmx2miFaUWpdLWy1VZEEDnFwumf8ICD0uCVS/wCZLTVbRxK+sNAH1Hx42NU8ddxwBKrGoxqNYiNbriLbd7sGwQu3FRg3e4y+XrXw9ijJrEJfccmrj77J9ATTpGhnO7ye5Xvc5y7ux9nLCV2iL4+5tw9WIqp8THOY9r2Ls6nmtsauNLZoqeHbcwW2VZIiP8NYTdPrJr6ix3Yz1cppGXVeo/BskR59PMe0ZCxpELPLASIkoIZCB4gxl/OgmbpufVnzBMTX9vav9mZpc+rvlGl6hnWTFEZRuF2ZXctpqtxGqneWNfIPt4ufHE0IWjb5etds5ofNpqq1yKngtfISXAjSE8v+/wCcH7vidm/srG8leBNL4r7qyjd2P4fBwtsueNIriL7S+KepxBoFM1bSI328GyPv4UgzH/i/VyDHYd03cyKORNwWzC5e7PDIa/Frpi7LAJpmLXT18IBNRsHtir96gAJSYRFhGYeYXvRNHMOOB5jORg8jtiXNm+Q7dBUQkVSFXz9ee3nhGTswM/eMRrXfQHFIvTxMjexicgGp7u6aiw9186GxdVW0eWzfYJWHCwoncwyp479q+Osxx4lTJ9I1vM2PiOTDthJHkqjJ3u86yNJrlr4L942q+WsUvj4jG9pGI5i7t9YiczHJ2cKi9TFUb9AcXX7Y/FbpibvamifD7qXNFG8HLu+ZLJKd7fg3XDW8QgFqpDvvFTdNKmy9pGNKNzCNRzMrxw1LI75A5+6YxmbDIyNbuRhUVHIiou6evZ2cSsB1ZpmjTJMuk2aOBF3jxGNc9yNYm7vRC92+L797XDerXps6FMfFf4eLI52HHzjXdPWJ4PcmuED96OYz6A4wf4RB0D84ei/L3BzjA3mK5E1LsyF3aH7tmo0E8jxa3Zs2tJGGj0dztAYkczCherCYxmkaexgLJzY8tyc6bp6j2NIxzCNRzMlw1WOfIpvbZT5DZUj+k1yuFU5lWzURp3LEKN7SMRw3I5vbY5FV16L15Y1fb54cqKysD0GyZBpRlLJK8pNQJoIv+UqqErDDR413bYwmymbp4FIxw3q16bOjHfHJzjXUOUyUzdng71T/AJ5NcHv8MsPoDi+n9zQl0HwKzRfi9Zyo1FVyoiS7VE3bGTdSPcR3M9yudFhmkr7Ddmxa0INlcnUfpU3TZfK0hd2fzj/K1W2tzWRUPENIZEj8QJzdu8xY5dB4gx1/Oglbp+e13ReowSerZ3E+yK50qQ9yae9z13e5XLqLNlRF3iyChUeV3Y02Sc5dEyy7enjOdqVZTZf8TLOVBCIV/KJjnulQJURjXSgED2AiHkflCVUkQZEdvMUezauUsc/L/IN7SJu1dWEJspm6eBDCeF6sI3ZwiPERHjXZ0GU2ULfyf6hvzn64Pp/dU9foDi0zmxoLtJ4Lpy7rv6syYOM32vF8qWWS7219kbHEcjWNVzoVU1uz5PtKiIibImydhDMZ5r4nN1mKxUTkkRnD8U8WYJlgaoDq6yGjoaU2NWg0MyFDc0mCY8/4Ybma4hUFfQlhsgKXnpILCtUxm8yEhRiJ7QGaPSCd+S9zFk1siP4qzmbqnkUxRtj3EVw9QsPoZbepFmHOyLidNH8UhoR2Q5FDoRui1wgrLMWVZzHEK55zwagYtnyNnvPOiRfZKcbFJdVxUUSlVyEaojOb8xvVNnNXbQTo/wAF8HSo45I+Uialx3RjKN+qp6smj28vUVd1VdcI2cuOyH/QHEoPVxCYvz1HdzxxO7TlYFivIuySrUj90AnI1VVy7uVVWFCJKXw9lkWKKMzYaePYSQxvl7SkO9/z2TtNEY/xb7LokufUk54piB1XcQJoURJcdhdZZdenbNJKNe1sB7I1Owj/AIS5NIV69IImtTJpfzEDQMnX/Pj6Gtfcc3RVWHlwDxl9pvMxrnMXdqqisdaOHzNLK5Hb868++8IIRgasduzbUrgV0gg/B6ruu6+epa8xGk1H8QM7ASdvAnlf8qtAqedUzmnD9SQvLHI7s4Zh6WIRnfQGTx+9Y7ZBTxXVU7mgj7bkqvlqz+XUCrV+xJPg1qI1qI1NkVUam6rtokpE+BN9PI9/xL7gsNjvFnsqUThO2fqb+l3bepjEUg5Kyio5gj3AB+DWkcpJPXnsM5qNTK5rWRu6tXcivUsSMV/x1sLrxmmLII1tnLixIJB9XvDnKiuXlTZNP8Y8RdRvyGdti/cjW/KhF+YX1LR/JBJ2YpH7rjdaJfBf+/uRHNVFTdLGMsOwkxnedC/cRGdt0zlmq7VY9o5o1eiKmjKrRuVvm5yuXdy7+7sW+w12vzMZJ6gpBhPRwyva4eRFUfJJjiNqQ5hBhMMSC1IHFknUxHGRxXo/lRreVkthJNVHEB6K4sU4vzAkb2mTkYAfzYnKxqdsp3Md66rxdKINvz7b5+wRs1BjrLmx47fiY1GMa1qbN+gOJULumVncibMpickxG/LsvBcwGkTsgG68Vj/5lTdFTSpsu3u5TecD01Uv6lfLjr5+pEgtYxDTN+Wqr5N7PaACNakPh+XrfjJjEE7DqZY/S7u5FyHFZlU5xBIsiIwpGfA9zdDfKP8AA1xtE5hu2NGE1w3dSUjir2vdyMc7UUfWkjZ6t0Tnmcvy4bw++ZXGVU3Z9A8XoHPBhT2p4ieoyNenmxyPajk8tHGhQvGvk5qtcrV86E2xHiXskpymd7yETutgiL8BhqIrxv8Ai0EJDv5BMV7gRhQvaLymkBgzZwyyGDc9uK3T6WxR67rGAqHRiicjm5XkkPGhgGSO6QajmR72sZOg8zE4oDQNtFZyIxYLEHDC1qIiHCKQNRnG17MjpO4L1426xoJXEGqO7J7+UO2qIW5nkX1HORrVcvkV6kK96+fCCByxZs9yfQWS1/pWimQ9vaVFRVRU2WmN1IvIvn2XIunL5k8ohejJGTsnJ7bV95Ys2ej9TIo5ZUOkhg1ZFhi+LqHcp3q3piag2UmNbo09immNaxqNYiNbldZ3OV1wt+44a3KkCteZ33mU4xDyQYHGIQRaGpj0laOHE5lZxbXmyWO1NNTlaidmY2CuVteFfEI0ENGp2T38xuXVSLpwm/17bg3TiK1PiRN18NYvXeiqGHEVNn/QXEKr9GZKdWN2DVH6MtEX4ey4D1IvMnnqtJ1YQl+c1NxIvryHcgXOTVQ1SsN4+PaYaFGrV06OVq7cirog3DVEf54vSpHG2XJbufssojJ0IgH6gSTU9sMyJsWsmiNAQ6PTo1GY1FtY9yilJ1uI/wB7mwB9lnMZAhEO/UbnOZ8ky7v05eVqqvkNqnkI35tRGtRE8u22P1ZSonw4BV+lMkjo5u4foPiZUekaFZAm7n1Xn7xGa5fi05EciovlIEoTvGuqAnsFHo6bhd683+GdrH09k66mIiETb1CvQY1cusfjekLgaF8WepmkHpyGTGJ7PDucydUSaqSq7YzgPom7ZONNQzMq+/4lK3syWcthYpGEv3DURqIieWp7+UXL86QXNJUi+XbPP3eM5382uGNR6Pou9Fbsf6Dc1HNVrk3TMKdaS8PGRF6FVJ6EjZy+x2XotisImqZ/JOamlTdNKmy+tKTeO/VAn4Yi6m/G31JzFcH2dCI8REeJ7mPq8pezZlgznSJLBLHzxitI3stYiToBgL543YLUXgTP3ayCXnFtvrm73xCsS+aZNZdwhcg1/EQxdMe6/F2TCc5l/pUC6cNqr59ttJ68jlavsYlTuu7wEXZeixqMYjWIiN+hOIVF6YplIBu8zVTK64eRy/eauWc8JV1Hf0zjf2HTYrvWN4ifqj/gl1N+NvqmisJ4p7LixyD803QBiRyIQJHDfXZWRmzZw+okGyiTk/DGa5dZbD7tZqVqfd4JeNLRcxne3i5kb6SspS7IY77OwfJN8PZIJ0xOdoA1MZjE01EaiInkeeAPm/dS3Dv8oaJp9lJeip1Nk1w3yCuqHljzWKIiKioiou6fQvEjHvRdl32MzaHHM4BmkZ5gK0wmkYvhJZ1I5G9kR/UjCdqYmxvWL+W7VH/BLqb8bfXNFY/xT2XFjEH8t0RVRd0XZYOQz4uyKTrMt7qNa13IQTxSIU48JshoXbNWS98IUMXgwI0GNGp2KqJ5rtqaZCORrV9mEdsYikVvM6TNOf4nbN1XV0yxN0oMch30XDZFH1LqQ5rrnhqLpK+olPQkyMaHJJHlDcI3Cu8dKiEq5L+Yn0LbV4LSvNDlN3Fe1Uimsyw5Se1Wy+7E2d+UioqbovgdvIcjdU7uaAzU5Paavqo8kUnKvi0slj47uVfaoX7xns+c7426V7U83NTSyBJ/Omlli/qq6WaP5I7Szk+TF0s5f9mu/P8A9rdd9J/RuiFUnm1u/aN6jXdvmpSL5vdrnf8A7naVVXz7GNc96NY1XOpcAtp6NfK5YQarAKeFs6Q0kwkcAowkHHEwQ+zirTNk1jbMTPv8aslqbyJMRfZaqORFau6fQuZ44O/rtm7NmSAEjHIE7FGWqndJUCZfYs28s4uqB34cjdTvgavqFkjGuy+KyTdZyeGyaGR49+m9zdOe5/xOVdDY8juUbXOdHx+3kflVstUBg2QF/wDo8iC4cXL/AIyQx6HwymL+ZYR26bwvd/NbJpOF7Pnau0vC9vytl0ThgVPy7Qa6Pw1tWflSYZNTMUuIrHPfF5mMY57kaxN3Nq5Tv5ETUqEWMxHE5dow0NJEJzuRG8MB7e1aPVcpoyUFq6IR/UZwviQ0hNmMGiy9ZHn8Kue4FezvkipPluTuQvefR0CspgwWorzypZtT4zJsI8YvwSBOjnIEibP4f2PpHF4quXcn0Nn2JpcBWZBaiWD2uY9zHtVrnOV3xLvrH3e2Zupifc9rV2XxTfSQIp3K/wBvdKuKn8irp9VFcng1zdYJVQ7XIFiWDHPHExeki7dKsjaEEYW8oRsG33C+WntR7HNXyr2Ky0YxfPVuzngE0i7Kip5wzJIiBMnlxZrkPSBmtT2+Fknbv0fWR1sm3gd1jTu5jhYlj2PI2TZGYV65lj7V5fSI9RskppK7Cs4u7XI9qOaqK3XEKJ3TLJqNTZvCCdyzJ0Fy+H0PneHNtWunVzUbPIx4iOGVqsfRLtMcmpX5DvVQj08nLpJJE+e+sDN0c3iKvl7p3wr2SNgZJJRfJZTPkirqUZxRPb5JrCpHecVrH6yWL32gsI+268NzdPIVZoC7hYurbE6u2mOkzmmIUeB4+3zhvfoOJ0QfgrI66iRI0NnJEjiAzXFePvLiS01gUlY2W17k8voji/EEKXXyRja0lOu09mpP5DvXqC92yiCX5e6d8K9l6nLlM3tXz1wpkdXF1HpU3TZdYt+DzKOPUJdwJq9s8gCZzKilQrFuc4avjUB1GyPKGr+LxxSJV25Jio2RWzobzO5BudriQNH47zL54e1X5TVon0TxiZvBrX6q12nh1K/Id681VZKa9vnGKh44it8vcu+FezKE5csmdpfAr01wdP8Ad2cddEMNnm7xI9A529yeDQncJuyIip313+1Nd9//AE131P8AZrvrf9q6kyEK1Gt3TXEuQg6QId/a4YxVkZYB+27foji+n9zQl1AXaaHUxfufXsk9pi6w6R3nF6wnul8l7M0Tky6X2yfA79cMDqO6kDRdk1ek6eTzCN1/a2k2/jk0TM6VvlIe/Ts7qk8mS3aZndS5fFkpmqu1h2g1fCL1EVURFVV2TNLhLa2XorvG4SVihrpNgRPH6I4uDV2Ox3pob1GRr2+fpNDMa0reRUXdN09axT7pq64VyOtiyD395xCZyZOR3bNTaS/VTYyKuX3mIrUJItLq8f0upIPoGHX503ZWkTS4JkCJv3JuuXlJyl3bqpjYk1jVlzDFICfiURNxdzRZGb1AW7B6xtZFlsu1G4AW92i45SyLyzHFjps2FFFCiBjR28ovojJKpt1TSITncq3FPOp5ChngcNdCK8S+yugy2P8AB/sr6k1N47tcHZP+JRVX3bviXXE4e1xGJrvrURNmqunTn/ytRNEe4juZ3njcL0hfQIyj6jIkWPDCgogRhH2ZLgcW3nPlx5CxDH4aWTfyJkR6Lw6u0XziLoPDa3cv3kiGNIHDKO1UWfPITVTVw6mL0IAGiZ9FHCKQJRnGwo7rh9VTUc+FzQjX2K2lLu6QHqR9CM8fwu8BzWr+Ym2mEY/4XIvYZNwvTXC2V0MqYPfw90T8x2uKbPva5+qzFLWwEMwxMYHIcYPSRBHMcZUxyvbaXcOERzmso8eraRq9wjo0n0qqbpsvlf4JV2fMSMncpF5h9vU8zngU4OxpiN8nu13svzVF1j0vuN5Ak77J7o/5z9cUm/h692sW/TtdrPo/Xxo6onjgxEFllY5fpq2xmotN3S4Q+pO4ZR3KqwbAg9G4a2zV+6kwnpJ4fXEeKY73xFTWPS+/0cGTvuvuZfhIfrign93wl1iLubGq9dWUfvdfJjrqEd0OcA6fGN7SDa9i7t+m1TdNl8r+D6NupsTyThTM7xjbo6r7XuZyff64np/c8VdYM7mxaF2ZADu15OEnlg0vvuK15FXd305xbgdC6jzGp7PCSb0bqTEcvs+5sE9pi64lt3oBLrh47mxoSdmct5cpnba4SFV+OyBr9O8UIHe8ZcZqe3jc70bewZe+zfcz0+7auuIbObGiLrGMrHS1joz4rzOn57OMipDAKOkyUaZIeeSRSG4YQCQcaR5mq1305NjMmQzxi/lygPiyjAKmxMOn+ksagnVd3+4lpuB2szF1cYnt7IXDu5Psp+7xm0XD6vgEaac900qeHl9PcT67uWSOO1Nh8M8kiVgJMKyOgWRZceWzniHEZnqq5Gpuq7aJLanwe0pCvIvtLq1G01ZLE9Ua3UYnVjCInl9P8UKzvuPd4Ym5dCI8T0eJ7mPh5ZeRNulZHVI3Ee5H+aOIbQuJ5k/OrBu03ieHb2qsiafxMGvwwCJovETm8q9zlNxAmL+TDjs1JzG5P4JIaJJUyTLdzSpBTLVV8i0nCiQ2K8sGOkSFHjo5XJ9Pva17HMe1HNssHo527kjLGfM4Y+awrLUjh1di/LWKbRcKyAfnXuXTsWvG+dZJ1/Zu6/4uZpMZu1/0uXpmI3z/ACrTaFguQP8AOEjNB4cXL/jJDHqBwx9pFn2G7aWlgUwOnXgQf/p6eXGjrseQESvvKpnx2cFNPyekZ52kXUc45IBmA9Hi9QxRgE4hiMGOLfVUs6Bj2MYhfpDJLb0JVPm9Bx9faeL/AIt+vtPF/wAW/X2ni/4t+qniGOxs40NK57F99k+HQ7+UkoxziPkFSaktSwjqjl1hv6Wq/V4o2p5N8+BzKkbXDe0PaY9+Kcry/SGeUcCTQzZSxhtlaxyKObfQIxk3FGiR4jOSKAQW+/4ufqSP2Yd+lqv1eIGHntJPpGsRHniYheSToJK8w9YtSsoagcNjud/0hmH6XtOzDP1VV+pYWsCuTedLCDTs5x5Hbd/1ByWmnORsawA5+iEYJivI5rGPuqtnx2UJun5NSM87SJqst4Fp1PR8lh9WlvAqmc1hKEDX9vqDm27yTart4FqxXV8oZ+3i5+pI/Zh36Wq9T7evryoObMAAn9pqT/lIev7TUn/KQ9d/id2HIWSFAPvalnx2cFNPyijZ52kXVbYxLOOp4B2mFIkBjs5pBRia+9qWfHZwU0/KaNnnaRdV86NYxkkQjNMG1ySpqnck2aNpB57QPfyrKezUKZHnAQ0MwzC7DFGEbiGe0Y5OZUEdytfYjcoM0x8zuVtixqybmujV6ziyxd0gywzog5MV/UB9BZh+l7Tswz9VVfbnebEjnJXU7+V+P1psgvRRnEequwmhWH3dISJq4gvrLOTDKu7sIzA9ZJFEsCuLX2cIVlXmiHV3RzfDvQImSohnliaxC+NTBniggcacuC5DZq6XNIBp7Svk1c18WaNRmrpsiumDlRCKM1JYNtamLNGmya4ufqSP2Yb+lqvWTY7U2zVk2nMN0OrPZ2L41UIkjVNw1C1rX28pxH2+LwLKpjV7lKEGY40XHZQk6vWj64Sfpk2sjoo1/DZHmOK1uX48THrBoVJ1QaoryyWiFR0ICrLJw8vOgpldFeQo3hK8ZWqwmJ3hqK2GZrl7uioqIqeKW04VZXSJkj8vIL6beSlLLIvT4e4lEt4hJ9lzEFNwOikBVo4zo78noJePTOgdecHD53Ph9cv0HmH6XtOzDP1VV9mZ2i0+PSZI12Mqqq7r58JVCO0nGMRjNLYwk85kZNcRXiJlkooCMIzWFynTMWrjPXd3E/8ASJ+zg9GE+TYyHsRTa4xhahqs6J7euGCquIgRezi5+pI/ZixhxsPrzHe0YslyhuR2ga9DuiU9NVQ6iG2PAEjGdnGL+CrezhJ+mTdnGT/SezhXGEPGUOxiIXXEoLQ5dK5E27KNyvpK9zvPijzf2SLy+WsMy4mPo+OUPXh1uY0k/ZGTWhflFQO/pCxmqzqYjWHp6CPBlOG4v/f5kkMOKWRJegwyeJwGnVI1a8gsZySHkAHOjczDZh+l7Tswz9VVfZxfcvoSG1Ph1hGPAyGVJEc5A6+zKD/58nX2ZQf/AD5Ovsyg/wDnydUNYymqgQREcRnE/wDSJ+zg3/q/Zxk+Cp7OF36SF2cXP1JH7LS4sJtJBjOY8VbrhlkffonoyW/8T2cYv4Kt7OEn6ZN2cZP9I7OGH6RB2cUf1YXsoP8AAq7VrBDZ1x4chPu8hoptFLUMsa8nZR5BY0pUdCkO6eMXYb6rZLCnI/8A7/xbM8eOgG1dm64UtKuUcw9+nnBUDidm53Zw7hul5ZD2T2dcTILpmLFcxN3a4ZT2wsnYwi7M7JcgUSMSRIejAwJsawiskQytKHif+kT9nBv/AFfs4yfBU9nC79JC7OLn6kj9lXUx7jAYMI6IjbKEaunGiSm8poEs0CYGVFfyGx23Dd1QpgPDs4xfwVb2cJP0ybs4yf6T2cMP0iDs4o/q0vZQf4FXaz7I5mPlrlitG4YXxLauGTlGeLaYBTTN3AaSI/J8JnUgXSWPbKia4Okf3myH/l/9/wA1p3XdAaML8/oubJ6BvuXYtW1uP1KdGSF+uJGUgsmNra1/UBHCWQZgQDcQuBY36BgOfJ2WdojGkG5hGo5maYueimOIJrn17XK1yOaqo7H+I7WAYG6CRzzcQ6Ng+ZiySOsbW2zmc2DBCoYdLWxcfqGxxuRouJOQ10mk7jDkjkG1wwu4dVLmBnlQLUlx1i95Q4ljcU7iFZHgBgnYfs4b5LWw6juE6Q2OWVZQogGGkywCFxDto1vkHVhP5w6wbI6wlFCiEliDJ4n0HfYHpOM38RrCMjWgsV6vM6FEyKolicQNjG5eKF5Bs+5R4Bmn7OGeRwa6GeBYFQCksIY4jZT5cdsbifdw7WXCFAKhm64a5DXR6buEySOOeZMjQhdWYcQB57Yx7PJZB4b+oHWIZRVyqqDFWUwUvjG37mqdrBcuWkd3SdzPgQZsaeBDQzjMPN7GNBxyc2Q9vUaiuciNRVXhzQlpql5ZbeSV9AX+K1d2vPKErJBuGDeb7m0VGxOGMZrkWXYlIlLQVtM38BGax/aQbCjcwrWvZacPqeY9Xg6sR7uF7d/ZtlRIHDWvC9HTJR5OoEGLXx0BCAwIpsYcyGaMfdRfZ9Rftn19n1F+2fX2fUX7Z9Np4jaT0UiO7p9n1F+2fX2fUX7Z9fZ9Rftn1a41XWkSJGltIovs+ov2z6+z6i/bPoWBUYisIwZ+ZyI5qo5EVHcP6FXKvSMmvs+ov2z6FglKJhmNGbb7PqL9s+vs+ov2z6+z6i/bPqTjdfIpQVRGk7p9n1F+2fX2fUX7Z9fZ9Rftn1eU0S7iMjz0eo/s+ov2z6+z6i/bPqLgtLGkhOIZupkuOxMhEBkwhmJZYjTWAmtLEaxxOGo2EV0K2ODQ+GYnE5plqYuqTFqmnVHxYyON/wC6v//EAEcQAAECAgYCDgcHBAIDAQEAAAEAAgMREBIhMUFRYXEEEyAiMFJgYoGRobHB0SMyQnJzsuEUQ1OSosLwQGOC8TPiJIDSBXT/2gAIAQEADT8B/wDXzNxkstuatBmtM1pjNC5jgeUo+7gb8+S40U1z5d6OEM1B2LMme5zCHsvdXHUVxmbx3kj7Efe9t3J9om5zjIBD7x1jB4lH7pm9Z1Cl1zWCZKPs+u7yXPfLuktJJWiYXMiu8VlEaHd0l/adb1FcV7ZGgfcRbW9GSAm6A874asxycHssO8brd5Ke9gssY3oR9uNvR5rWIbVXIhki0jBG2rL0jujDpWLr3O1ngOK9s1xHb5nmFhEFrXdKYZtc0yIVzXXNi+R5Mn1ITbXv6EfuoZ9b3jivxXi/UMU2+NGvGrJYTsCGNzIQX4rh6vujDhHCRa4TBQtfAvLdSGKuhRT95oOnv5LuFjcIYzPkox1klXiDe1mvMriDDWrmMwCB9JGOOgaUOs6Tw98aG35ghcQoYscfvW56+Sr95BYcXeQUd+sucU8b5/F0Be0/i/VXklQfXfo0aSmCTWj+hjG4fduy1KG6s1wwKbvYzOK7y5KbE9C0afaPX3J8xB2x0pNxPSjZXAk0da95RHBoGLiULYjuM7E/0JuZe49AUQVXejHmgd4+UpjUo/oouWg9HnyTbY+KfUYctJTjWJzKNgaBMo/iG3qC/ttDfNbFjTYTiAZjsT2hw1HcysgsN2s4LBsES7b1i2LvgUDViMyPAQmFwGZwTzNzw0lcYsMuumGNpiax9JHkjskWuF7GZ9N3XQ07+KR2DMrGK+17lxn+SyZvU4AklbQ0dm4iiz+2M1EM8yTmuJDFY9a/x8lEfXrESwu4B/rNzTbA1okBRhEYLDrGKb1EZhRGCK3WLD39nJEP2uH7rbPr0pu+iuGDUBKHCC7qQ0IbHZPXKljS4nQFsmJvW5ZDoCcPSRcz5cPscF7DmMQnRNrP+W98eSEKC941gURXFxPNbZ3zRuGQy3D4ghjuTRIUxILmtGdimYcNrhIjM+HX/QwIxqdBsT2hw6eR9QN63AURWAnVf47lrnRj0WjtlwWydjirofWd/rq4LZUJhZPBw/hoe1rv0y8F9nYD0CXI6GJuc7BA+rjE0u8qBsRh7BuA0lMhhnWf+vBbHfVJGE7Qesdqe3fDI4jcBjCfdrEHs3I9HWGBBrN8U9u+GTsQnbHae1yFdv6zyNhibnHBQz6OHnznaVKdlH2er1LSVoNFQovaOw8FFbV1aVXk8D2DxgnibXC4iljjDd03dx61sYVfeZgfDcBtdhODgtkGbJ4P+qMGX6ioh9JCy5w0qIJtcORbRMk3AKEd6PxDxiii3fuogAhobZecaNCzxCe2wpzWvA1GR7xwBcGNYDKZWoOCy2t/kg2q+IbK+VihPBZoneP5nTEbIHI4HrUFxa9hxzCiCY0aE1lZpAmtEQjuXPeSmmsYlxd7vmqjh2iiKd+3iHjBOE2uBsI5FNP/AJDx7R4qNgCd6x8E611BtbAbYf8AI4almYYJ6ysHwm1HDqTt9DicYI2tUZ1Q/wCX14Brq8N2nSuNCFcdi+GVjEjCqB5r1nvN7juBZHA7HKMbeYeMinWna3VZ9CGMU1++yiq/wQJkUE8+gefYdxdR5E7IEofMGLqHeqMhQDVWxjvAcX/TyUU1YTDdrOhZMNUdQRs24CTm681AG3Q3DFuPZ3JpwTCC3oThPh3CRBxUU+jdxeaVdAefl8twIZPare9C/SKNjiTp+23B3nyHhNLnFPO9bxW4BM7TTXPeornvP5peChMqw2OFjbbTr8k6KYYOADbJ9ih2xGlsjLMKFYJ8R2H8zWe2BD7uFO3pQEgP6B46tIV8OJg8ZoWQ4jvvNGulkAd5VWh/YVDNreMMQorazeQzZRI8s8G+PUnGQQ7aa01Ce9h65+NEPbOuuE4SIOIW1Thu4za1n9JfDfxXJji06CEQRWN5k4gUMqsHQ0ICVBTVE38CeDsR48hYLZyzOA61FcXuOkq5u4eFEG2s1i/sl1UbIg7a0/5Cfb/QvaXtZmB/vcsEyStkRSQNLioTA3XRGjl3QTuBY5QnB7TkQorZkcU4jr5Cf80X9o7+xOMk0S3DLVCdWHkognLinEf0UKpDnk1zbfmNPON6/Fi2DoCy9lngE20NHqMPjQ2GQ3WbB2lNBO4IkmmSf6aFr9od3VyDaJk5BRXkgZNwHUm70bo2tTz6SH4jSsRi3WKB6zp7xnmobwGlrZC67hnN2uJLA4FNsAe0Ol1o4QmAHsE0b4kcy71+HCsHXehg0LBt7nagoO+ivNr3ZDRNRn1jqb9SF6u5O9KgvDpZjEdSeA5pzHILZB2hvTf2TolM691gclgcCh7TTIriuiuIV7nm5jc020uN7jmeDYJRoDhWEuMuNCdPsKyfDPgjg50u9e+xaIrQmguMRrpiQvWUNnnJcb1nKKZWmZKO+iP4zlA9C3ov7Zo77cymNdGxiYJ1Ydh7OQUKGYjtbv8AXapzOrgMisjahknQg4dB+vBxZ21qoElEba3I4hG0wz6h8kPbAm3rG4Ztg7AaMYhsaOlOG/iy7BoQEoelxuT3WndzmFHh1x7zfoT1cghFMMam73wTRLr4JzVFO1O/yu7ZblsWpGZm0j6J4rNcMRuXdmkKIawIy4w8UcWmg+1UkesLmxD4r3x5KNWrh7rTMSNy58396FwFGxvW0v8Ap5oWDdkSW2hjtTt6e/kDCY556BNOMynO4Jm+TTMFRWBx0HEde4iNkDkcD1ovLWVvu35ajuoe+hP05aimGTgDLrzWfqHy7FzXh3kvdb/9L3G//S1N81EbWqPvGuiJvYTdOfQnm8obtrpoKLDbE6xPkAYVT8xq+NFWfXwbrWqGdth6jf29+5aPTtGI4yhjeOP3g890BJsZl/TmsJOqnt81oIPitLmjxXOfPumm2htWTJ+NDBWc44BDewmcVqG9HAVZ0BhZ+UkeHICJFY3x8KA0Dgw6xMdvhm3EJ4DmkYjc1qxq/cu8k0XYRNI8uEYfSPHtnLVQ68I47siVEOO9vcfHkAdkg/pcieD4oQuaKGb6CTi3EdG5cJEG4hVpgg2wj/MVcI/su15I48BgMXagjYR7T9fkjgFfo1IYI3tXdu5obIn+keXIDb/2qsOC7aOM6xY2XJhrNcLwVdWNjH+W5cJEEWFXnY87R7uepNNsCLh5LKJ6v5vNG4tMxuB7EPfHsX4kS13VcO1G9zjM0G9+KKFxQwWIzWLct1WK24d3IAbIl+kqY3YxK4xWZXGNyzNLuyitVBIrQ55W2LNs2Fc14d5KW9a5okT1o+wDJo6KNJo5jyFzmNPeFoY0eCyc8kLJomU71REFUnoozwWYtT7xQLjQEPWG5rFbcPl5AM2S0/pdu8GhYNFyOAXFw3GQRoe6sHynVnfMZJ9zoYqz/KubGf5qKHOe17pyAlLxU5NBWgSWRtCzbbQLtkwSZ/5Bc2K0+CziOLuy5cRjZNh65dyfeSssAh7M7epP3vqlNMqcDksDmnWHdO2S75W8gIZY/wDUPOgtG4zxoxcViTedxo3PNO9PQuNDdUKbDDA15u/k01pcVzpkrUfNZscgJmyR+q4zblmF8QhTtnenCc8Sgyw0xGNf2KVGatQt3AaTREe9/wCqXhyAdAfLXKYoFlLBRgzNDAcLtY79w1tkx6y1SVYWJ5BOgJzSCc5FYAGUk8VdrMSayo2od5UqQF6o3BsoEBpOsiZ7+QBUGI6H1GSBnS4Ao2W4cMDJCE7s3AyKzuURsy0GeKdKs0AX600VWtyCa5xdDrS1LS2lsJoPf4oCmclKZ3BM1FiNhjpMkBIcgdkNbGHce0FPEqWGi46+FvVUkdI3JtZCxdryCAtMt7DasoQtPXcvxK5rL8Rotb7wWgr3Ky50EBEzNICJt3LBJQAYzui7tI5BQnmE7Ubu7tTTNETocJIWI74UX8ITVOoppkaMgsG3tZ5lNEy7PUom9it0Z9Cfa0jEKLaGAyszJRJa6G/2SMFtVYyF9pQYLtSODgibRxE3GhxTRIbgWpxmojhBZqFp7x1cgojN57wtHagmWUvE0DbRLhCnAVw4Gc1+Vvmj7EMSmrxB80LgFGP5XZKBv4U8W5dCh+rEZkcCm2lzr3HNDYrfmchQZGJ4Clqfvtw+yhjJv942nt5B7I9MzpvHXNP3ppZb0UASKB4ASI3OhZJ1rGn2B50uFhyOBUB++bnmFU2wOPFvRnUrskHyyVSE3t+tDbhmck4znQE9yG4ZvVA9NE6Lh1y5CbD9INLPa8+igWOoKaUDWClwFiI3LfSO6P4NzE3r9f8AO5NaW6TDdf8AzUoJJhNayU9aY6H2MBogm/M4lChyYO3cXN10bM3+pns+fTyENhBTvSQTzT5XJ9hpcJFOBHASVfwUtwDNC4tMl+I2/pC0YUuG90HBB21xRzTf/NCHcocSJ2b1RbG6BmnUixP324ZYEN/FOTBf5dKAkAMOQuxpvhy9oYt/mVDO0UNM01wNE91IquVLdZhDFpkuOyw9S4tx6qI++6cf5pWw21YnugWHq7liddp8FgMhgKcE4oLJtqzcjkKNkOH/AJM7AMActaPIbZJnZ7D8R4odqKLTQWhEbqSrFS3ehZijKJb2phrNxCjwzCeMwVWru5zv9bgKW9C4oo5jbteSP3UAizWUPu49oPSLlDMnNdgtjitCJxZl0ePIaIJaRpCb6rsHtwITr9GmgOIQmN1kjZJB01Ja6NVGta6cwNzrWuk2ADFH8S1/5fOSzine9Q8ZoXNY2QFOx7IhHtMPkfFMfJ+lpsPYjceQ0K2C/wDadBTDVc03grA5Kc0HTU9xkEKDkVpKyAms9qIHWs3xWjxWl58AuawlaNj/APZfA/7L/wDn/wCy50GXivecD3JomXMcCjgFpKJlYU94aXSumVogfVFofDiSlWC2ww3vdbLQMrCKBYXAyht6cUfbYyrP3cT1rGJsmKXnquFEZhYekKG4scNIUD0D/wDG7slyHhi0fijLWmmRBvCuRAKnuDaRNe8VoctrcQA6raCPque2v8yyaJcERIpriKG2oKIwP6wtjPkTzXWd8kC2IO4+Cf8A8jhDrFzcrxJC52ynANnob/taGO8lk59XvRuIoikRR0i3tmojBFbrFh7x1ciAN8y4RvqmmTmkSIKLOAe97T0tPCs2REHaaCKBBDPy73wT4Lpa5THaokFze4+CkjZ/ymQ1DBaYz/Nc8Vu9cWGwNHZQ6tDJ1WjvKe/az/kJciYweIjh7Uqsp9aIPdwDdkQydUxPhftDj27iDHc3uPjQ2K+F2EIIffRYrd9/iDNZbXP9y/tTb5o/iw971ihkZp7x4r7Q09R5EiI8dYHkp8BYQntDh08Jto8KZoFjx2g+CyQ//QPVtlOta6MZqLFHUB/pQGOiHql48iftH7SqwU+A2lrPy2eHCVmH9IpmokA9hFDdkudZ7y+G/wAlzYTvFaGDzWZYPNC/ekS60FBFSHpzK2Q6oz3W/Xu5Et2SJ/lcmmYWeG7moEZ7P3ePCOYx3ZLw3Ei3fCaP3UFtnU1c9zWd5XxmeaBk6y0LERGuYOzzQx2kuPcsAyHLvkje0Gbnayr4kTBjc1CaGNGjkS8Ta7iuFywd7LtRoy3QW8iN7QfDhHQJdTj57h8ZtdvMnvuyaHssbIUvteAys1xzXOrN8CviHyXvuPguLCZV7TNYyvcdJx5Fm9rxMFcy1n5fJD76Fvm9OXTRksxTJR4Tof7v28HNEPHyqIJte94tHRanvqSaDYZKK+Ti2+V5REnRHGbj08lz7UIb062+SH3sHfDpF43GpQ4zS7VO3s4OaDnjuW0tUJzYg65dxRi1esS8eTR+8ZvHdYvXFisDu0SWlzh4KEwvLWvJJkMLKIkFpdrlb28Htp7ltclFhuZ1hQYjX9RmnCYPJ2FFIb7uHZJbGilstBt8TwUlt/7ShWH6zQ2M6WqdibD2o/42eHJ3ZMOR95v0IWyIUx7zfoTwUkNkN+VybEeO2jen9ATNkGXS1vJ3YrxE6Lj39ihxRW902HsnwQKbEYe2XitsLwQ6QwWZ358uxP8AWccVsmIYwB4sgB3T6eTsZhY7UQoTyxw0gqpUf7zbPDggwO6iDRz3zPYm2hrhVZ1Y8n9ltEQe9cfPpTniJCc4GU7jquCzhvDuAyT4TmzJzFD2h3KDYjts/wATY7wPRQMWmRWUT0nzLnMIPYVzYxHgVojA+C98LnRvoucS7yWUNgC57iU89QzOhQobYczjIS5QOEiDcUfagOq9l3YuLFh+I8lzYku8Bc2Iw+K0NmvhFfDK0yHiudFZ5rTEJ7gsWwWeJ8kfWebXO1n/ANPcnvAWmO3zWh81EFZrhcRuW3ueZAI2BoiCZ1ckWkCoDK9fH+i+P9F8f6KNEDK22zlPo4cMDBVkWytw6Uy1rx7TTcaNobudjBsmYFxE59tECIYVc3uEgR38kYMMxGxWiTrM86IkZocMxNZQ2Bv9B9lb8zqNobuS0CLCJlWlcQsXRRVaOlTrxH8Zx5I/Z3d1G3jcZPdaehaIL/JG5rjUJ6DQL3OMgFpjt81oiAqHKvVwmjcCbTqF6z2lyF4BtGsX0/ZW/M+jaGpwrBsR8iQvihfECiWsiF4Ad0r47fNaHzQdVrNzV03uAC+O3zWh80TKs1cRu+d1BZuhOkj7TDOlt7nGQC/ttc/uC57HN7wgQNsYa4t1KIJtdKU+Qf2d3dRt7aWb2LHGByb5qIa0WITMhuJUpbYHGvrmoLy2eYwKeas3GZhaRo0KM2q6qbU51Q1/WYaNl1GQZCcpVrZY3qJviI8Ulx6gUzDPSFDMwQozJkZHEddH2VvzPo2hqhQ5bcIlWq2/UqxqmUt7OwnJfhwbGjpx7Fsf/i2t1osljNRp7W+UjZeDR9qd8rUx9cGGQDOUvFRRWhRJSnoOmh7nOiRW3tByy1q/a9sNY9ku1MNVzTeCnENjMwc3zCKgtrHToU95BB3rP5mg/a2Qg6U5YmWtYPhvMx12KJbDii5481VcP1nkH9nd3Ube2gja4fvHHx6KGwQ0FxlefovihPaw1mGY9UDwo2uoT7pq+C2xnfRCDGscfZnWn3ChzYjCdAqy7zQIjwOuj7K35n0M2O0uc4yACMQB0SVrucdCxOLzmTjTtj+4UfanfK2j0v7KIsR1d2JkbKIjWPOuVB2PDJ/KFtrK2qf+qIjqxAMnNOYR9iPvD5IivBiG4OwUMuthkkWuJx18gIYrOccFxnxapPRIqH68J948wvs7u6jbxQdkTP5TRCYHCoBbavdC90L3QoU5OdeZknxW2M76PRfvonF/ZRtr++j7K35n0QGiE2Q3r3gYnHVRAb6Mn22eYp2x/cKPtTvlbR6X9lG2P76NqZ3UfZofyhRm1To0oneRQN68fzCnGE61juhTqxIfEdyAibIAdpsJobBdtmqzxkjCqddnjRBnFdokPOVGx3iN0XHsNGyWGDbneO6XTTDbWc44BOuc1bYzvo9F++icX9lG2v76PsrfmfQ+A0tcB6ruMoTqp81CdWaU6x7OI7EUbY/uFH2p3yto9L+yjbH99G1M7qPs0P5QoxftgeL5VbutR2hwDxMEal/adZ1FNve0SLdYoLGO6ZnkA07ZC94YdUwq1R22WVNafvouyS4Sf9E11aLFFzjgBoTzJrWiZKj2xJewMG0OEiDiE8+jicXmlC0EJolt8K2trC4rYfmgZls7BznnwUMVokV9kzi4qJEaTtZrBoGmjZAbViOum2dh61KtttcVZZzUEPL3MM22yx6KGxC5pfY1wOlPE2OfEADtWahQhCr8a0nxohMEMw4jqs9U71sYekl7UP6URrIrRhk4JorOrPqlo0gqEXOe9nq2ysnQ6LtjHu9UzAEp4XJ3qxTEFU9K2OHVntum6VnZQyISNsNUOB0qcq0RwaJoBrA/jSFDIbIJhRDVJcBKzNB0QfKnmYlaYRz1I+0wzUaE6FDZO1xIlcjcAtlEOc03taLhrtPIH8aEZO6c1k+BPxWUOGGd80b4htcencOEi1wmCjhCO96itOx5/uQ9kCoD4oeywKMwsdI4FfFK+KV8Uqptcq1sta+KV8Ur4pWxW1YdV8sAPBfFK+KU01h6Uo2EFHARSvilRW1HelN0we8BfFK+KV8UqCZtFe3HHpXxSvilfFKa/bBVdK2RHivilfFKhPD2ziG8Gagklu1EC/WCmtDWxIW9dId/StMOZ6wQsasOqeskofexN876dH/ut//EAC0QAQABAgQFBAMBAQEBAQEAAAERACExQVFhEHGBkaEgscHwMGDR4fFAcFCA/9oACAEBAAE/EP8A+fNqVsd2nkAYhnsM0hCuZ7Co+D5h7lNgxYCD0UrecQvh/ZFAqwF1a2+SZNFGDspSGFoZzQIDzorm6tbSIz1pWlYuT1fSQDbiQnWmYPAgvdPFNkuyjzs12KFTsAyToTV3nahEEZG4n69AvscOqtisDNr7tj+JotHOdRAaZnNlq1WpGbQ6zYKveWid0EHd5VqAGzeQfdRYeH21aPgP0YNCM85+wSUQk8hvKfgoob3mGHQZ2JpuJ4q7TwcKq6MG7HptqNQC1yNxXmOofrawS4VI8nGLO10lvFSDjKRymZ3Zd6DcuiZDUIl0I3pAiRdCHQmVe3Kj8WA0uEmqRQcRAdhzed21XYQiPqC7yw09CWI70jTfe1br2p485M87lmg3XcZR6+48qmyrHa4ezDtQM8NkmYlFgIwfI+zg5afrNqI17EaN2CmFSCbI7vJY2qOp15Vne5rG9Co0lQpzW6L7tKHQ+UjGO3Wp0hgYX3PQ7rvUBQS2S+icd8uCBKAoGCaTmHKlWKvP1xz3OBojZqQtF4DNzptib5MWVIGEdaMmgJuA6nv92P6s5vnS7MN/TNi2xgj1llbAAy0CxVpW/qS7c8aSgEgSDTLLljTY1cg2xoVYPLkq8/gdhvbrgxc0xXd4GWvdaRSpfyRCxJ2Gpe511pChCiETMowIy8i9nMzx1j9RtxJsxqgYpoXehnU1QC4srVoYgv3XPlUk9wlflPqOeEy2t0O6tImiozCWHIPIvleIBabB8ua50oEuFYGz3cLVbharVarepEIKszg0C0pLJfrYnUyJIfJe4YNWcxK4BibsTtiNWq3C1Wq3C1W4W/SVzSBYR8mDkKeDdRZYZzuDbnSMWJFuaNy6WigK3jKk18UOpSsoQGxLRbARTH/4GwcJ8YHnjhK2tT0dqxAtr+GSUsUoDEkJNSRjfCmLfRgjUxCYjFkqXosreRKLOTvhJTl2grYL5TM6bv0m9X4X9F6vwbcDecwAwuxvcpbTasUZWo81Om0AL1fCRpesnJiiWpATzRnA+MEI84TzpWZU9Qk96gt68L1tDI1p2i8gB0OU7u1TxhssOamXXpV1DZOaXudEqY58yYwbOYiJ/n4BijeYAWOyxS+yj2dFCDYypSV3YJzhFXq9LdGhZWMF3e4q9X9F+F6v+kKESkxgUaKsdliHBLhBLE6P+BnlM5TEXh54vIttSHZ2dB/adZpyHa9NeCCVtGPSkXyL7OAfFLKq3eEcZZ1MinMkwZmuMGyuEMtj1EvXU+60uxEsc2UgPIadA+tUdv6p4XKGwgEBcIb7/gHqKEUBMwxyogpQgGgGHBdOlHF2rc2O+VYkCCXySZj9vSWDzclsboP1FdLK9YtI5w9SpHB50DgbrY75VkNX0AzdtXFaakMDIaBkcQDoPn5p7eVGiK+/HZ0EQSvYqIlQ3A22CAnQmjwOYr6RoMjrj+coiBi4E9cO4VgiXTgt3UPT9QZ5Ljcp5im7egjFnzcB2d9MRdxLZQ9F6rmooPNBFBA0Ag4tmFzMojrh1pFeTYS0Tgr4av8AwMIiSNXNKthI+0V48UBJ7/p7FML9ga8MRI9qifkehYL1fa2Zgp6RVx9GCFqP2cFsMD1Du9KEIJEhN/QhAlpeYEqwmI0mBuxwgsg8WXlUjbKS1QXk/TngoagH3LOsDFTs422JuZMWWIp5O3cC+PQv+Zg0SJhzpe/At7gUAEEBSfOfsEdF3KOoESLh26CPoG6eRtYvl3oAAokRsnCJbUJB1pdrqxp4537aRUJQ5Vugj0iohzDmF8FSBbKdBPEfpqvkvwD+7Z06XFLC/JoMA6qgGkgTAErw0IT34p+H9BKPkvYeGU+40IOIuRB7v4Av4NASzNQqT05rIbjCcqbfbMlGwGYkTqQmEJEIMyjBHjK8mZoJXIaBFKNc3wOli5GvBQHSmO0zTqBNgXJdwnDktDcJFWjiOi3MNag1T2f0oag29f2I0wSzkk/vt2T4ckyf0tfmn4ASq5FIc1OEbQaaGRfFszt8B88qFmgVzIubHCK1bpNxVi+1qWcaBgWCoSnKcP7r1EDYAwRIomMNTKb8BSW0oRpccoBelPC5ipHUZ8VkfMQPahaUdYwxGKxJLdsRapohZoqG0g9XGBgWjLv0ANKxTdARhdnXk1zyiizWiMjypr7YhWuwIiwNLks5H9kFc97+y0Qk6ZisxmXsOdqE1/Zf04Dx/wAxa0XuZm4UDm8yUSI5ifpS4CpODldBx1bZMpabAxWpsQXJ2bVBghOYxNjw0SsF6Nt41Ka+wX3MKPElpC5gr1aReCzI1kX5MlRVFCIPjTBPhKlOEzZOZ89Kx3KbwYPb2/AmwQ0kCJGxFPOVHQ2DFNcSdQrxYu+1LSLcTa3J6BpIUMBCwl2LAGR39BCeAViYdCw9N6SWQJvLBtk7Q5UTYUiMia0wrpWC1yHQKu9UGQ6L2UAACAsBTsRf5apkFGvfB2pqSoRyaXB9NxHE6mGjzt+kFBx0TfB6OBvyaRKoyqyrWAJXM7Pm+3B5S0DaCKGmMCke49F+bRsGEMRjtJOahvSQQyRXawUzqRB7sFh0nnhSRnmJIMLo3dFCeWQmJIio6SybkpPNYLcPJJ/OxMh0gSETSp7GOJLFTUy1OTU2Od7w0b9ZaeiSbfuwPitxMvKpKy7T7SUKIjCXEqWhsqvhbjluhz/Rzo7WhkargGa06qQJ5CweR3Vc6xXLKOGUf3/eEKS+e1Xs4/KoNQiPNkPBoykTheTDmpCcqPSlQs8l0TvRXWhYZolsZml5qSgO6BHoR7KbQVgcCa60ZAaWc7VhHQeZQWggYAYH/gsnWdVkmSN6KtliEZEb6mTQHI7Fhkn7eePCCmw3mv7JXLC97/PDAYmBhmFa0K0D4uydrOVQCHbO+I6IyJqP6M2MKVjibkXc9FRugCsIw3dWbXMnCllvUkZruv8ANAtnZJmfBpSzQqU61jyRe00hMh0iEI1H3pEsglOoCO4/nCUDGkJDLp6AwAYN4rPLJMymrHGcRD5KTEzwVA6sBfPHhe6U7geZrYb7DgYtmzo5NFVCQ1ncrLAJPmENx1/RbmLb0ZQbqDrTAtVJJelRXMzP5fjvSgK4FKy8GOLFnct7RUacIXlE3ZOqvKqaAXGsrD5kuia8M8Pz5gu8IBfDzo0duOillnimO70QBPfau8aqkO7VzYS6gu9WXrSwXqNbDcy+3ox3OyyfjtS5CTzEj4qMEKNmG3SCfoiNoFsc7ieUUwQYNt6BaADpV2PXiijK9uf96VE+fQdVskjs1CdORvgLuNqQiBAQYuH0P/Dc/wDU2uDkKdKmb4zweZIpjsDFdigGsGJHfFescqhVMzkBziw9qd8xOALiZo1bbZ8MUSzQvYKkAkZ7R8+gqZcisXwc29NaShXAQBzJdX6Gi8T8AJV6U2DfbELdIB0qGth1XF7e9TTpSyqt+IJcEhHOiMOIamnSjZCmW4+P3YOSQg7IsNpiDwsekSSaMYthtrlV1M4kMmG0T1/M3IRRMbc2Rjoa0BZrO2QImNppmdWHSZ9xWcPrTNZvek0y0rs3JXccg51gH2ME6uru3q64kn2Bd54UUs8WAnFwkyJYG9WwIftYP0RV4ZoHy/HphTbvTDxPakaZoOT1EnWhvijghI9n9Ct7tcvE3xjqcJaI72u/zpUidT6WNhxDFa0huWD4KwqeLDklNUUhSDcW9DAJIywxXcAzUpVJqI8d59gMqbP4BiUFSIUeVYxwlouAxIuMJaHJrNhARexHdowkH/VCeaSJrSIPMhS8g1u+9RLSRXhpjWcg5JSTMQ1GAcEhPOpNetJ86QdnnSlQ8szVXI1cAp6rAjEL9DA2OdHHbIG0pn3dAVKBAy63PEemHCX0K5wxdzbeEPTAdX6FcMMjWgHcJ0nclHkLvtSgK1ILn6kpDEJKQUGlD++9OJAM4GSaZgTpnEL7eBgN/wAEPIqZXpLqhZYb3wjKj+CVJOUvJkqR2oN/aL9MmxW4SW+8d7+iWK2exM93gamSC9Xg6Eu1JGIZIQaOXk55AmUI87Lsbuw031yDLu+9AAAAgPVD5HYG571YICLqYHNX6EYmSHKwI53dan8sZ5r/ADzUUM38KmGA6j/Eq/UO9COAES1OJWHkza/MRG9s2jVnQsmD6L5S+tBxHyVkmSa0WAAC6rB62gbbFYOWZkbJiOzem5esWBgD9h802sh98mlpNgV5r2UkBBIIIOdDyzD4jaGjEDADY4DKCWLZcey3Nox2z13Hx7+uAjHfMf8AfFKhBc0vHZfoOYlVoi9qfMgzmt1qWS7s7EH9qaOh+FQcrDln4v0p0BhMRGRqASDBox0AnSpi6cV8A6su/QA01CQLMhe555r6g5eFZZl5OjlWc6xwZDAc5KHJMSK9SgEkc/mCiS9c6iJZaB8bzKrHYDBG3CGccEEJHZxujTFzgzoJOTqSq3VfNYKrE6ub64CFy6G3yUoaoRMmoi4ZG18v0CJGPanAy4ke9805HVq34EERJHKpULjGmp0ocJQLnQTlB66AhrSQo5cUBpgNzwG4WdocmgwOKbmeSY6l9fUFiKAiaDJs9EpQ3OPmWHdUgB27xSEE+xcUM1BfHbRCaSzWRSVhvBtwYSdCwErWOKgcDDq4u7sUZUwbE3fj0Wq3E4HN2X+OEwsvLYXwP0BpCOuwvD+/wR+PD8Z6rJ90qXZCPOt2ljeKKVhYkJE6NQgYOPEARJGyNAzWQtZLJGCcNG2lXFfsAHk16i2H4mAVsFX+AvsbYOYe7yJpAhgHzG9APJIPXKuZ3HBJGekz+gOI3Hun9q2ICnANWp4z6hnQ1966UJUI0B/XgSOFU3ubcmy6UTDTIOXF42j5RZE0oA6gfX9hcYnDobwtmtsF8lvhyoywpAyJqfgfJJfZbQLtEvPAbW8wNnVadqyALtTFtyJ+nOnGshRcrOnXmzuaNBpZiZrRKmpqeE8BtiPNaCP3n+gEw5KfKvqNadx19PXjFy5GbyKvg1M/XLpSqqsrnUJL9h016UAYsZD/AI3oj30YBglBVwS5Oo4LZto5BiosSJmUkMPFqEJcDiI4lR0NN0+M3X0mmMQhWFmGb5dRpd7svc7C0dFDN+RENk4sBe1FGalf0SUdYoNyWtc89xTHGGadXLbgSjgwjojSjT5zTZqyMvP2aQa2FZUfgOCYDRqS0GNj/jf1GA+k0mLL9Ac8f+j+FKXo3ml2HqGq0qQFRqYEVjkZ0vUMUms9TeyP7VqRybHI4AgCiESyUsIrW36fzhNKBnDBQBDCYXooROYjndPFBEvn84UttbSsCwo4JzinT0o0egbfOrQoiMJmUGHCBZQ0vwZvjLeecN6IDjU+6UiDH30FFox/nExQJ/wanQotb5gBXjeOB09Lu5tU3urAOcYVnRY3MmrpGpmVZwbn7O1JSLJz3NadDhEqMYsdF1NvS5XVPNOZVLsP7+gR4YtyQ+SlAmIzRRsEE7em5kxdXeehUyiDoH9rALAEtWUYoWzm5/caJCAgCwcZUk5hpwkEI3mlU3WMTnSXj4owhnKJ2ZybGIaRh1IKBmQz+Yqit1GUBFhuuJcKLcOQlzUz/wC1DOZmdyKCX7hM6KYXtupicGGVh6CzmjzCcCKLoF7UbMTOtNgJqjqfZUdZRC3Vq/8A1Gb4zm4f4B0CiMyz7ppyEGoOi9XcVLRe2ZSIx8txqd5INR8Ohk8qUX+TitquQRcMBrQ8riWo/wCx6FAVwreRmpULxuQHvP6BBhIQ5E+Fw34Xg4jzPuuhXMUt3/KcsDKrK1LTCwK3TVrHVGa6nBgJbFSp0mHepI5L0Jno2D0pauW7JzVZ6lCmzFD7pcegVA9zhYKuG6pU4jvHFavxWwIHMT2rMnkdJQGmcDw/2h7JBamqYUdz5BT1adaIneCQlQ2ciyuQt6Ai5bZLOd6LydnSE3aahSgyW09JpERUyq3Xh/tgJnzNOTtKwwpITOTOc6tKUwTMtTW1pvof2PR96Q4TEQ+aez9AIAlR1D8gcN/zfRfiOLUWABugr58UXwqIDjYDzacqFIaAICowhqtSwj1bFO3U0MPWgiII5JUzyMwqKETglxqTmPhT6FmtEkp0MU/ymUr1j838UN8+nABMaCjEY4TJO6hTVqxsZgLvFulPcClnBjFqX2ISqOMpcIpol20pjrwe6F2D4oRy/FpNZUaL/wAKxI0by/Homc3AeqfE8EHQv0B5F+gCGEiOZUz0knc+FSm3M9SPjiuUdst8UsIrhicHvwhqgThU+K3fxza47v8AlWKXZHUvx6FXDIrQmGkSxcyE7RQahmgEZaeVGH6RBACibTGlOBHiZg3zcVajF7KmW6FJi/esDzVA78XSww0W4ptqHjjcyx4LUDxC6pv6ITbuuQf7U1dkNS+VDGCAyCwfoLd7AJ7i61OjcdeJ7eeMZrwPJ/2O9dan5mHRY/3rRKYJFMixGPxwpdCHS9TsmGbIPk8+kNwEBjf/AOhq3fIwLseDNpgTjdaXMB2NQ1FxC/1ux0iNqx6OJYaBhzw5YV5FspBFDG33jUdiZDvsVftZzfiSmY0zlw+jF8T6bIbHqbvuUuDBTCEL9CrTGgmjKdhRTANA6UpsmDs1NYiIlpvROw6jRKmtY9Qx8e3CEZL5cZqampqanhNNyGpkwj7nJ6UXULLcY4EVXJn/AJUdEbhdar4MKdf5+jE1OxTnwI7zkO8l7mdFsMSkQkR0ii5GioGygYu2gc8KHzEwMVI6I6JhQgdcASSljHCh+owIJhWOQQiUuFKS6nAXMcno7gCrANXC08YOhf8AlQWt1B/w81NTU0ysCp0CsdMrq1ifqHRs7L+hAYItuy+JFMyRCJCNXMl+xufJ0qOEqHvuD/etJhAfRg+JohJMKh1MO3/fyQsWMPMqRpEgEhQC4xPWrihZP+y8UGdEEFzZvWp4gcVD1/HfShejA4A0ChOIhgLYjyOJ10qdxcFeW/UeztQpnbVWJQcS07VPWSyLcVFtOgUtzQOrWYeADhMaSF9d+1RHWuurwiBgI6v0qapCK64eIqKioqaV2PLP+daQAStgM6AcF+s4k5H6G+RDyxJ7WFolTFjvGT39+M2Uv/b+9OEss9RFq1Q9YtuIQc21D8l5DjMz7UiKJCcbQc3HRrr0LhokARN0pQXwQGJg83jjCuHKv2GmoQcmAY5CSdas2c1AMudIKY44CR0s8cBYQwrXnuW8EY7CJ8fDu8TQTzcma4vxwPAQrWhqLpLQhwABt6JtzZc83v7U8pO8Whncdmk/ojyomAuhZ2CgtcoVU96M+uPAS5BE1KmUuA6mT2qZrgBzs+xUd5u1/WfD7lRahPaf7TkIZHn6MtfA1ahwTBcEwHKUcvScFYNkSz1CiOULGA0ByV70FMYo0iC5cBwMXtTi7h+5/PCZOgRh8JgddaEuAgOEaG54PpUdMhzW9p4Wq1GW3WN32aWVVlprsBeXCYdZehp+iAgMgSI4jQ0CSM2YJ1UrlUHEikycn7rxg9bqR/j4qcGBn3PagQcEipAcRiu/pgPN2qHWw7D+19zf0WuWBBpDS7BlRHUqUzDjA+B6R1oPnJO+xMR58IqGq9Tk3XeppwI1IlyYedAK8mzOOSiE2IO1up+GLG3zvibu1WTznYyONjuSqGUNLll49/RISJ4M3Nq4AI+YMWS2G4oZqgIAYAfor2xqF4fMEm4M+GIoIfA1NWTuXx+au5Eh0amoPzd6mpqampoQtfarKfQK+5vU8JqaYbpmFnmVMvXQrBpAxVBthxHVwPSKAsFlbD1Xqat5BGMDCe8NL6zp26x7COapsWeddSBvPlR/QGMcD/o78+E1qZEczWMUAuhm0BcBAaFNoZ7z+U5QzUnwVFASEM848L9spIhAokSrixvATRNgSIyJ+jM050Cz32BuOplTIXLmjMqTEfUdGsw0hzi3C4srnnF6kHQfj49IySMlKHcn7V9loV9zf1y/NhZ6VJL15RNQMiMI1CMeXL5eWohWqI7gk2SR0yKnPG2Hyv660ATJEzLC7APNZCWLq68CVIarFTgrs6tObOEkAua8vepEdtk/3rwBZuCJuWA3UoHdUd4oi7B1aQaqRzYhHcPSoeJKhX83wafAK5LLD1EjYGX6NcRWTFxNBGE5VcWMiQjsnwyZU8uqW6tFEgKJEzK/5zDUdza95+a5iE+9/QkiU/5wwTUq3IF3G9FJezIfxr6m9efwFY107+1Dw5RULF9A+aza5wrJE5/4pyC5zS+B9H+0zJdgfQtjIwKTFPyrqp/2lISld3gq4wNVOQGLQBXySobDDkqR1u9jLaIjZUwZ1tywW4jSFCLqi+sg8mj4Awmye56hQlBCDIjn+jNjPW2lzT/gw6i1e48CxGsUC38+jt7VAzBHcD81P/1o/wAoToIehm6OITFT4iIJx4LpEQrEnSnpb1RoUlYKT0KiV9g3OoCoFQ/+Cu8VHI2Y98tR32DximYXmNIN07Eo0teYaDMju+10ApBkpeZ5qRTgPAusDPimasgC7REvJvxR72RcvWPIbEQJi0xNH5sAHvrMgQH5xLCImOW9Ldd0mnRXGbPKlglsUFxrIRyXfK29FgpmLBzd6BvRCBiudk9g4CdNr8BCfNbNpQRE7lWjU6kwPK+v6PY6tbB5tuT0codFQ+ELImTSYogArkYVB/kBf7U0tA8SNE5jRygzkdY1znwNIB3VvmaK8X9LGEvEUu6JgzzrJqLkZM9j8Ni5UIcuDZIrGVDzBOGCLwPRv4mmcIkjo1gLujQH5qROfkpeHe0yRwP39ispielNbRzxnDCZQmEx/dBdmmRlYknchR5R4BbyINFDSUSJs8A5sI4lVYckbktjdP0gSKtFAD20ueDqOJsyAsiODW+AeRozsR7+gUbVh761jQ5isCAN0PmPx+A8BJRYOxUYvXaseykHLhcWVF5mkFrB9q8Aq8dojcfkVyYUcWSUYGBJA2KTH7EwFRVg1PfaUsjKpOsA4RLsObPoaUmiILUT3I9P0k6r8w4pqQRP8qJ6Dyfiva+/rn5hI3e0X8fivCH690n54JIjQhGjFSSylmgnuugQBEhHOgsMTk704lqT5+aZL8CJuAg5o7FTlJoQ8VNask/Sa2ltYidmY5oVq4FueVCisl5lC+InRyPt+k/9BkUkW47jVnR9z1ohBFaI/wCV4CvgJ7/i8F4QbVu4vniNgZ5qZTB3M9pSVC2LtXGjQ6v4aVOjN5ozH5LQ8z0/xRmKhm+OiJCZ1Kiimg3Svd7q+FI++T2/SeVofTlUz2vNQM1BwmpqamprmMT73q50ox1RPz+JfyqmtkPdvwmhD3tJNQIOLD8LU0KYQRWkqRlb2oyvSh7Cn43T5ZqNlaueHSo8GU9AKNsCVWAKTJ2bK/yvgKgakd1mU2Un6TAyenCHvFRQRJNRqGAWUXX8oAQRwT1T6CPcqV5MDoMfL+JzqKSI+M4jmCHwULAZkCHG1OHq1kblfrNEAbrHYmkqsEwI0wtbTIsNmLmlqjqPFjyPyoNkoReqmpMREQXzgdKFJYxZ0sW2Os0yGUjTKut9DNoq2nkCL6ur+khGOWTIFcpIdlqQjkjk9cN99Y4ShwzVxqE6ng9aGQRkcz0dFnzVjSl+MRAbtRUYT5/wKiSwXlCkeWvTlZW0VNtjyuAyi4QphrWF2jPfjYyynackLne+OMy46Omr0PcqKANT5qAta3PYj5om7imPKSXYodOc42oS65/pZj7g3nBs1IhrmKd026inHcJND5dA68E725cqMFfMKBnaBvw16X7VJ8LqwkAfWv4zA6P3oD/E6vmhJcLhM4l4VM8MEvEu44NScDwAIwSJMDlVwARj6SwNiDb9WBAFEI50irdQZugeHWkbu0aBrB3CN+GDJNZdtFn3oMjmFJEks5R5H8Zg97U3+pD+aug+xV/ww5SeSlZg7lh5/WiOMJvrqwd00SaxOiZIdmkGg5HtM80ImmNowLZYtKVNSvJBOkeJ/EOYh8FTaUO/+a2gPYp8UBIi6ZKA+aE9BpgyXwo1g5sxJH9cBAFEI50yoymzTL6pVfCDaLd79n8UEtQ1LoSd/wCNT2bjtDwANET0SfBK6rBMtv6B6/rthGTxisP04VbUgeqyH02/FFrEdv8Atb2TwfNfVJl88DNgXvK00Mh9giO89/125yXgvO3ygNJUkFz9FUEST8M21O5UXlSGKEQkIIwdGkqbOh5KHcqTtg4uAB4AobRQQi7gdAfrpETzOA+9bYYMQPkq2alpviV53dfw7/IfNQQS/RzThNxl2zGwU8lPZYAi7zXqY2oAAAFgP16+mqMIWechQl1wCQhUHMXtjW37odxfUwENVip8LqYFTp0yFgpicsQEpi8+BN5DOyD+wT9uSC7aOAwcGNDqUOAWaDlY0CAGaq6geKIJXP5mpF0fQto16DJ7UaXXEPzot2j4poYr/wDrEU71fykjG8pbVDxFhbOTIYrQFFGMCk84/YFRUPEGyI4lKYxUJ3yelL9gy+VUYYbKdNRdhdfYau3f1YU/f/asN6pe9YZ+f3xS5Ba/CTUem5zXl96Abhky9a1FVrZHVl3lgZH6dNTwmpqamp4zU1NTwmpqampqeE1NTU1NTU1NTU1NTwmpqampqeM1NTU1P/0ATGMyWNbtdrUbTFry/bNFX6vKsE9Jhmk02qtinjRcx0uv0/UTSC/LwomYcOVf8tX/AJav/LVAWrZE0TEZj86EfpxCiUSsrMqIegEBJAy3MkTh9Vp6YT9AYEtmbADSLYtCiJImlGWfyyFBc2ITt+ohywXNdCMCSQzjUV33RMjqSUUCSAh2D/wAwsa+K+609MV1FFFCm0xAjFgjdKYsQk1Vicpamo6EQQpQ0AA2P02amp9LQZqeBtckhQtsT0Kl2e6SttvKKtARamiNjIAN1wqf6c6Y7fu2mnyvaTzoxM4e1DCgmWLZldCt/Wk9p8UfaMxXPYHU9Gqa+60qCfkEwkg5SPavpHzX0r5qADgCLZMNY+ujPScmcr2zSAOOSAgpfZO9Amlg5OkrWProz0xmcr2zS2pCaJGEvemoPjMXMVOsUUBNvig1buuHE6MYOzepqaFjEnk3WxQkTondjzRpQ0vuB5phNRfigC9W+VBvuXQTGCCYZlTU/ozQALobs5mkmDqsRE0287Yy6Li5E5pTtDaijzMc4iNorBuO4/sCPWhqAEothG+/IXNEdyQEQkbN9Kg+cJJIpKAIw3ghjXhDgSQ3cgurIO+EKXSlBbwDlNsLVHvRUiBwQsjrUpuDY6iZjgmdRVIKzl9AJ09Gr6rSiKRJ0NbpmBKylFGDISwttZGMUnS3enFk9BR01jAYUJTIhpWgyxZCBe5JfOeZxLwVefEmYRIVT8hZIBhDRbDUc4KgZNjJYLDc4jK96nIAsM2MS3PppgsQYEwiZI1fH+dw3Y6g9MFpmwEiYJS9o0DFYA3VA50fsUtBZAZuqu+KLBGmKAqQcgAmDUTbxLzkldqQPsJQ2pkJuZTmM1faY7Ifj9HaBHbZcyyDkTQgRUyqyrTJsG8CsTy15fB+ai1WiyMuW4HdXYxVJO9ftdPAPObSjCaTif14DwIxXUQ6Pe4OhJtQm+6+jVHbGoRitatpLHBtAyHDFvYApwcXvE+kH4WBfrGm7swBdAy3deDyQAGoi9YnrwYCXDVaBjeVeTrwN6wSxgyWZAkYwxLyflFETpLd0WkIxKSPFINm4pNlpVeqwgMIHs/QHz3wQHu7ZtGl7AUmsIu9Wv0tr+CJbc7h6WghUe4CH3eE68GhlBmenoJJJt1IsJFmLYwr7XTwx/gVRWqaAAUKlwFeTIb34Qc6c+42jfA5Ro/hQF6+x1+lrso5ahisQbiCblKaMnt8OTqrnnifhKXuunJzId6goksygEk5lxHR1n9ASFDXIGHqD04LhuMYSYD9LUuACCdWHzwMDM/0IHkOvBn8dmMJ7CvTgP8AmxWGndeIX3pWwUTfZR3ExEzG5X0unhj/AAKorUYFKExyDeW+opnUvmBydBqJCOjSEAA6mTqJZMxqAxC+lHF9zURz/AgL99jr9JXZHUCqh2KbWVAENFaMFWkwTJKWb95mbvMRsRTEivx3Bvwbi7xwAdVAZAA8L2/QAFExLAyeS6lRtlMJkmGESRnabVbr4RpFoZgEsE+VoRI+E/FZjFcFiMLyssWToBSiiSRIGA5xKqYusDwRYI6RCETSKVS9AW/NyTJzN5BMCiEImCNCxZBFudIdUb6FKoKtFXqg80Po40nOTvGXYLenvacLa9bGHQAyp9d8GqVRbGCJ4L4PmRS8ykxtrVM/LXuTEbzVgGywxgCy34anDIMdMTtEZsxlUcvRBgZa5EbTjRKNsBBCkm8THpwI1ZpoYFQJEYUZTYpF8Zed7yXQ4PscL2owGp5F2p6+1OYCYKEoXMUpxdZEhABgWy2thwfrg9JAWYRb2vWDWds8xE4cHBypsvc6aWnODGWvwJwFfVSIrTKkTUzLgeILArds22oEApECAU2mTpwgVYCAM20ksDN4xqb/AGEfxT4p6XBiDNZnUvIjKewQbOjs3o8NcibCMSEyuUUoQoBKrkUwnBFIzdQ8wy/QWcVRAcywJ1DtTm5akDqH2rOxfzhe2kYAQ2Pu7xsQbehgpBAHERslBupKFnymOQhTJ6Zkd40UMujc9E9iVedcQJdVxXdvR7APAoQw5WfR898om7uL7L5eh756AyhRBiHOw4vfGBDkS4yUMQkCRHJq8vlgA2NuDwUp5UkWunoTzzycxTIKWTmxcfngUS3UUVwM4gubLj88HajqAAkzuUgbKWUAzsKba5EQQSloAFjQQpsRRfRtV6TxAlDgNiePktugf/LpqeE1NTU1PGampqeE1NTU1NTwmpqampqampqampqeE1NTU1NTxmpqamp/+Y5cTi1lWfpeL6GjjlWdPA/DlR/+F//EADQRAAIBAgUDAwMCAwkAAAAAAAECAAMRBBASITEgUFETIkEyYYEUIwUzcTBCQ3CQkaGx8P/aAAgBAgEBPwD/ACIZgvMNdZ66wVVPz3Im3Mev8LC3mapqmoxarLxKeIDbN28kKLmVKhf+kLeOuhVJ9rduxBO0Y/EAvEoFt5UolN+hRc2gpKOTv2zmWmJNgMqCA7mVMQb2SNUZhYnqo1ip0njtuKO4GQchSvnMqV56WUrEN1B7ZXN3PQs0+olhyMqFtdj8xlKmxi2EI9SntyJR+gdoqVTiKgppxGYKLmeuPEBuLiYlbPfopJTYe7mLTSmdV5UYMxIgNjcR1FZNY5lGoqbMI+J2soiVBTpqW7Pja9v21/MwA9xMqONdz8QlDYNteU2CXVjxMQ6sRb+wpVDTP2lalf3pliNqKiYOv/ht+Oy1qopIWhJY3MwTWqW8yuLMZVN2vHcubnrAvGAHGWFJsfEYgkkTGbBVgJBuJRqeogbsmOqan0D4ypuUYMPiVFFVQywi2xnpNp1ddC2qx+Z+mbzAlNPqN41Zm9qCwi0zrCmYxtVS3jLBVNL6T89jZgoJMJLMWOdDEGlt8SnWp1eOZXY3t06bmw5iFPpcT9Oh3Bn6YeZToKSb/EZkoiy8yhyajR21MW85KxUgiK2oAjsWMbTSP3g6MM+ioDK67gxuYpAIvKiaDbK55gUVhf5no1F4lqw8xg67n5igsbCYlxSp+mOT0YRtVIfbsWPPtUdVJjWpb8xhkjCouhvxGUqbHIMVNxBiXHMOJeM5c3Mw9LSNR5mMRg+o8HowJ9pHYsfyv56ACTYSlgid6kWiVX2jaVaRvqEItkrrUGl/949Bl43zWk7cCU6ATc7mUaaMNzcyvQt7W3ExGGNLccZ4DluxY8bqf650cM1XfgTD4UDZB+YlBV+5hlWnY3XiMityJ+nSPi0pNotxKeJpvsDGA5IvPWprwIlQsNRFhKmM300heYWu5PvFiJcOLGVqOj7iYmkKT2HGWAG7dixw9oOWHwy6Q7bkylh77txNlFoX8S98mpBo1MrzMPRSoWZhfeHC0j/dgZ6T6KfuH/vmPUcMqgbn/iYoB0BJtMEulTtD9Qi8CVW9hBmMbVUt4ywI9pPYsSuqkcsJUuinxAbi46nF1ImHGl3X7/8AeVVEP1CBNheFAQLfE90AJYXyxDaRvGYsSTlhl00h2Ii+0qJoYrMC9mKeZh2utvEbnqqD06hPmaifpEpYU/U0dSpscsMOZXClbmKCBvP4hUspH4ypprYKIBbbseNp7hxKb6GDCYZ/dt8x+c2NgZTH7YOToG3MoUwTqyxCXGrLDDYmE62+wjGwvMc+pwvjLBU9y57I6B1KmOhRipmBqewHxHzPET+WMmFxaWenuImIB+qbMIy6TaIdKADkwCwsJXewtDqquSBzFwdQ87RECKFHZcVQ9Qal5EwJ+pZe6A5+oCDfmJ/LEJAmtfM9VfMY0zAxU+0xmLG5iOF3M9f7Sp+5fV8xVCiyjtApBX1j5lI3pjIhj9MOHc7mXPHUouQI2HUKSO2UP5edzG5PUmzCFidu2Yf6D0VBZj1Lzkdj2tahTiLVB5zrD3dQhqrGNzftquy8QVvIlRw3H+ln/8QAOxEAAQMCAgYHBQcEAwAAAAAAAQACAwQRITEFBhASQVATICJRcZHBYYGx0eEUIzAyQqHwM1JwciRg8f/aAAgBAwEBPwD/AANZWQaTkujK6MosIVlbl1lZZpsfegO5bq3VuhGMFPhIxCI5YBsAumt3UG9/XlYBiERy2IJo4omydLZMkDsOo42CLyeHKxthFzsldbAJkIzcgxoNwOtJGCLhHlkAwJ2FgLt7aHA9UOunixtyhrSTYdSL8o6jkDuOucjsl/LcJrt4XCdcodh+PFSjtHk7QSbBUdDHoildWVAu+2A7r8PHvQBOS6MoiyhN29SRz2nDJF7ni1kwENAKIumno3bpyUjC7IpsON3KGkfVyOZHmBfxyTgQbHkoWrei94/bJR/r8/ktapfuWMHf8B9UxuFggHYkJ7d6zmqFpbe/4EjN4KN9uy7Zq829U93s9QtP6Nt/yox/t8/mjyTRtEa2obCMuPhxVmwsDGCwGAWscRfTB44H4qI3CjFhZNbuiw65Nk0k57JwLhNFhitWmX6WTwHxT2Ne0tcLgrSFGaSd0Ry4eHIwtWaMQ05qHZu+A+vonO3jdVMDaiJ0TuIRa6nkMcgsQgbrpG3t15b7twunat57/wAosmxhuLkXjdJC0BD0dGD/AHEn09NmsNJ0sAmGbfgUeRQxmV7Y25k280GNgibEzIC3lt0lomOuG8MHjj81V6NqKMXlGHeMlGML9XesLlODvzMK6ZwzC6c9yfKQBZNa6Q4p4LiI25lQRCGNsY4ADZLGJWFjsiLKaMxPdG7MG3ItXoelrm3/AE3P896kN3dTTFOZ6R4GYx8voozwTck4G2CY7eF9lkXGM24LpGHNfdobrskSALlaCpDUVHTu/K348PLPqadh6OscR+qx/nv5Fqoz72STuAHmfp1tK0zaSrLWZHHzTTscCw7wTXBwuNhAIsUYWoQNTWhuAUr74BaAnidTCJn5hn8+prMy0kb+8EeX/vIQtVsI5j4evUe9rGlzzYBV2sTW3ZSi57zl7gparpZLyOu4pj+BQN9jmlhu1Nla7a6Rrc0+UuwCqJpGnAWCpKxzXCSM2cFovS7Kwbj8H93f4fLbrOOzGfH0R5AFqu7sSt/19dukNMQ0fZHaf3fNaQ0pLUHemd4Dh5KSpc/AYBBQS3G67NB7m5ITOVJq9UVcIn3gL5XuqrQ1ZS4vZcd4x/nvTSeBXRvOZRjxDW4lUmrnY6WtfuDuwv7ycB+60vQU0Nvs0m+0+0Gx937LtRneaqep3jcYOC0PWurKfef+YYH2+3ZrOezEPH0R5Dq1Jad7O8fA/XZpbTExldBCd1ow9pU9VbBuJRu43KDO9WtsZO5uBxTJWvyWltI1FJHBDA7dG4Dh5eiZp2vYbiQ++xToaaupRUVlonniOI77cVTUVO6KaZ8h3WZWwvfLO9rrQT3QVLmRs3yQCDgCBnn78VrNOJZWDexAxF72x8lFjE8eB+I9U7MqBn3gIWr8JjpA4/qJPp6bNZZLzMZ3D4n6ci0PN0VYwnjh5/XZpun6Oqe05Ox8/rdEbpsetGbOBWlpBNBTSD+23lhsoqmqjJEL7DjfL33uPXuUlQN926AQbcLYgZ2GXHzUdSWl5fjvCx4cQcPLyREJxuR7gfUIujZG4MNybcOA9/hso4jI/dbmcPNRRiJjY25AW2aZm6WseRkMPL68ia4tNxwVLOKiFso4hayU29G2ccMD4H6/FVbLPv3puI60LjUU4ZfFpuLkDPPPwH7oQxsxkd7hj++Xx8FVaRFujjFgOH8zPt8kx4e3eGytODVSucH2bknkFxIWrlN0lQ1xybj8tlVOKeF0p4BPcXEk5nkQWrlXcOpneI9VVQCohdE7iFWxFoIdmCmZbWC7gFMfvSNkcjm4BVUpADPPZRyWduHiiq04gJjeiZbifgmN3nALVun6OAyn9R/YfW+zWOss1tM3jifRHkdNO6nkbKzMKmqGVMQlZkVrDT7lS+36hf8AnvUe1uBCk/qnY126bomOYWcpKNwxZisWHuKY4PaHBSND5S52QTnFxuVSRF7sMzgFH0VDA1j3AAC2Kl1gpI8G3d4D52VTO+oldK/M8l0LpL7JJ0ch7Dv2Pf8ANazR/wBOQe0fBEbryNpiIItiFILSlBpOQQjeeC6F/cmCVqLA8doJkYjFmqSIuwGSFN7VTvNO4OjzClmfM7ekdcq6BR5ICpK58tMKd+O6bg+zHBTi0p2NLQe2m1UbRYXWGaurq6urp53WkplU9zgDkj1TyUKqFpBtsE3FoPWeLtKa0A3RQ5SFVjtjqRm7B1nZHYMQFbZZWR5M+Jr80+BzcRjtgN2dcQPPBNFmgFXV1dXRPJ7p0bXZo03cVFGWAg/gHl10PwDy8I9UbDzUI8xB2Ybbo/8AYLK34NttuVBH8AI7b8qCKCPUBRQRWWwbAr8msgigir7Cgih1Aih1L8kvtvtvsuhsB2X2X2X/AMB//9k=;" vertex="1" parent="1">
          <mxGeometry x="293.84" y="664" width="77.33" height="58" as="geometry" />
        </mxCell>
        <mxCell id="HDfnaLrlS0G8cOxsRyLn-24" value="" style="shape=image;imageAspect=0;aspect=fixed;verticalLabelPosition=bottom;verticalAlign=top;image=data:image/png,iVBORw0KGgoAAAANSUhEUgAAAOEAAADhCAMAAAAJbSJIAAABUFBMVEX///8MCQoAAAAgHx/xyrGc1eX5+fmNjY28vLwkIyN6udXHx8fm5uY9PDzc3NwlIiNSUVGAgICxsbEHAQQSERIcGxxxcXHvxary8vLV1dXOzs5jYmK3trYuLS319fWsXVGfn59GRUW3+/8ZEQ7h4eEACQ8AAAf89fGIh4cxOztRUFAzMjL46uKnUUPZwsF1dXUxPUQRAABcfIanp6cVGBpiUEfjuaHz1sT707j139KsZ1/y07+cl4RbW1vB5O7l8/in5vaGw9uXemuxjHaEa15vWk8/My3PqJG2k3/IoYu0dm++iIHVs6+gQzTkxq7n1tWnU0aXKxdrY1fNpZzPloGYhXaWMij/4MTUu6PAo464c2HHjHuGdGe3ppGjnIqWo6h2kZjQ6fCXwcuXz9VBV15qkpyEtb6s7P5Qa25rpcF8vdszS1dVfpNKbHxli5ehy99qFloCAAALHUlEQVR4nO2d+X/aNh+AbbkYEzuEwyY2R4CFEAZNKblK20GSnnv7Lj3e9Vjfd92arWvXvDv+/99eSbZsyRzBQAPKq+eTUiIE1uOvLMuScCRJIBAIBAKBQCAQCAQCgUAgEAgEAoFAIBAIBAKBQCAQfHk2gAxy+oXZnDbMZ1xCeeZPBiiKCayKPSaPWmkBU1FA/NJKNU8KsOiKYgGzoo7KUrGAhTKZhcss2Nwo4cJDwGoe/qrre4VeKpVqplK9XkPTa5LTBH6WkTthibFJ6VEcc9UEAMA0TQsC/5PhLy3Z9HNwaegAJQCaKWHoFC6bmjwYcBoNqC26uFPgRDIc1+AuLYnBijnakMfjMGhLJ8Dk0rAiTyxo9RZd2KnImRer+bU0vejSTkExSkujgL1FlzcyBohwGCo8nhF7EeooQm4vusQRSUaqoziIzqLLHI305A0pp0GMeBRCrBZX58RIXTYPvnpue7Th/hakDv+Z+x6mm1Df2qdCzdcJIx20pFv7B/fuY+49eHiAefgAp3x7//7DR/XgQORqKKPlx6b+4PH6+jXI+iEDTlxfP7yn7HNp6F9XgG+vXcDho30eDcl1BbjfRaFC0RpQQ0nwp/u4zqNh1TXceoAFr8OUW2HF9Vsw9TpS/Afg0NBracx1T3BbkgZiiFOx4sE+f4bu2cLEIbwrSU92yvY2G8T1bXtn55+SdBc+fwx4NQSP3RB+9+zO89NwEKXXN8qn3+Eg3sURB5VFlzoKthvDpzhYUll6Uj59dosRvPVsZ6Ncfi5t+9UUJBdd6kggQ2vNM3xx+ry8c+M2U0lv39g5LZdfuIYP97nrtblDGCSGL8rlsOE1aAhTXwcxtBQ+et62o2uapjsNdPUEfvBqKWSwlsIQlu+4ho8sNDtT0xB6cmPREoOotq1reUfLZDTHcCNhoGpaf9tF9VG6cVp+Xh5oaWDa6Q3pNmppAG5o3Fq6UcsXMxkd7qn8xtLUW0NjBlnsWq1moLk181/4hC9J3995ol4PnS2ubzy58717mvwBG+YN+Dampib1Zau4hlNLFmEckw78MWHNk7HhbfyiK9h9WSaKOBWFsPtqC2ZNGw56G3x/reYsTfACDN3JaLZNlawCA1N/hRXvbm+TCHbLrw/9KKrbd1HyG9TFo8baYKW3M8WkvkTHo53JDNnpBagInnaxTNDx7lIV1U3tvgLDL39rmcyXL/ssqFDR8hQJh6iX85I5ILvoKORyzBuShor1t29on/LhtX8fXhlBNLIPFHDw9g0Vx5f/OQx+67659mNdkcGS18ZxqBUAZJD48V33TdcV63YDvafvDuQ6AOklbDkvQIWQ5/beKsA8fPXNT+98fvrm1QFOblV4nOCGTgUt+DWpt3trAGzV63XggZ9aqZzG2VA+IdkDuWac6Y/YtTywKPZLTpK72aYAVdLlmz+H5nWrZDkNXlEDAGfTFCxnR7DnDX6u0Gmp8FQNv2cISKwvSTpoFKiDbMjqGv7mRANwS9oALS0Yl/AnTC1fVa4sqnxzwgCJjElaVAMN86OVX1ZVwwMc6N/qQss3B+DJ/vezZqao7+2l0VFopaoWGjIEaHUJuAqGUg503gP9PTgrpFIWusSFV8VyAxkCLW3yNiU6lByQlaxp7csWOgrBRs8ihsUk7JSXlugCcFoqMpDhOdCUUaUsodkMYmhfEUNJ3YunSq1CvA0rZVVavYKGBFQpr7ahIwy55//I0MxdYcObX31toUdoKL/Ho/4cd71pVPWsH/sFGX7yDTd3+/CxE4v1+0e8d2yO+jHEL9mQ4TEy/BW/FuNZ8izm8XGYYfZX8nL/aNElnY4jIhA73t1UNj98RRvCnmrnt2M/R3/RhZ2GfiAIQ6iAj3QMP+12YBBPAsUYf2E8Cwq/C+so+P34mI7h8c2OZclUFGO8HY1qEMGvQQfchC4ohpt/foLB2/xwHDv+Tcl2wMfAkLeKSoUw9vnz+fn5SSyGvi368RjVT+U4dnJ+vvJ5hcoVW3SRI3JEl/1kBRL7sKl0UPBKHaWzG8NJNLzFUGJKD23O/ws6yh/Y90+zA/44X1k5YfJw19SEg3j+eRdWVhS2lfOVv/465z6EdFvjBfEYVcwTXGXd53SGs0UXdyrOGMOVmGsYPHIdQI+jiQz7vJ0KGVTc9z4Zbchrn5RGhZZ/E0Pq8e/+Gc+XFYOo0tHZWb8Pf6CZpF4pNz4wjL10Ot1uw4d0xTH4Wz5xAXoBsFjtfLRPMDzY0Sd7aOoISOYvMLyTKQGQlRmgpEKty74wpBqaxUc3xGCm1PJeqjnR9/Fbspe5GNlgPBstAOQhABJFNYd8xy+L0UAWAxQ6VfdSsxMZKuQz5ryEqmYN9YOGXgYDBxiM/3Kd5n0IWKNTdfLRExkmyGfM19AeHkC4HbKapOlmyI79NsHyGqrKCEGZ3Pmo5pdy3AqZ5TUshAX9Fgd4N7mq+KVMee/J5FwKVIuwtIYOLYhPE7J3upDJF0Difimb3pvS5JTSCD5oaQ1XAeW3WtF1xzYcXdfbTUCafX8ngJyXkiYl4cCQCiEoaexL5FzhN0X+aYonw7RvCKojMyVdxWCdmm9Ifd1uSQ3VQHDc6h4DH3TBQjyODJOkAOPPdbD3pdFVmKNaGpwIIn2987JiqM5+geOfDMeG0HCSLiShQUqSrjkIlDZvQ73SbLZK1Wb64ltPjsPffmJMJsO/osKKyUybHLzk1Ina2EkMq94S4iD2cW/ldDbOGO5VZH+jwJzlSmOiSmrQgdZwZ4AFVyrfkNlZecZwlRTa31yDSUn4ueltgBkWG2uALuNEho2wXthQttIUhZBheIc2mJTEkA/HrzZGle0iMv72x1UExjB+oSFVv6hQzGQYXKlOb0jGDYqlVQZjCsPhZZzNMDVY+IiGQQqLsyhDvPVgYGXaRfHDDNlyDRg22LrnMndDAJTVVGHVDDY05e0YpjDUe4VCoUXKtVpApIw5G4JSBo/N2UFDZV2a4ZByuczV0O/LmAMlvBzDcb02ti0NBgwiGfodoL2JWvtJDO1wygyGiURijfxYRHFKw2Db03XGA0PNT2FbkuiGoEVvIdyniWoozc2QvD/ZiEP8jss0hmP6pVMYlma7oAr2cIVJ31gew8JshkEdKDHJ9vIYtmc19BsC9r4Xy2PYm9EwGApl5iSWyLA6o2HRLwDTAi6R4YxtKT3WRv/xgitk6FdzttOwPIbBtqe9QvRLAD8j5/cGJz5bUIGPZEimB/yG4OJe25SCkspckhV0PHTmxCc1TARNcBRDGZBp/d5wQ39Ub42kMDPLkcgHhlSf2U8YbhjsAasIy2pMatj0f0ugD87HgwtCxjALqvg71HqVfX06BuYPaUYYBvM57g6pTGiYCb2P2pWha/yhu3pKVHmM4ghDg35LVp7YkK4wWWbtx5BxGjpDdurDEGGboxVHGKLv/9K5JjWUwktaxhkyL892B2J71FqM0YY1pqiTGxZHKtCGA5mAPOsaufjQ5RhZb7B5iGEwpRPNMGhrgm1kw4ZmLlQcMIfbT9Ry4cF6PGHofnBo3oIoUs2Aa0imGVhDgheFHjWykUWj+RvucjM8qm3hpwlJs+jxj3kIIo1iz59VQFRz/t3U1FwzlcJ/x4nekpFukbx4ejxfTbm5mEkGh6Q2ST3L94KN9IqwkxFHn15FO0kqoKdN1B3QehbJ1Br997Kioib1tLuKJJ2f6E6jyUw7l2sXo96V1HA3086PDY3tNFCuCl/3PBUIBAKBQCAQCAQCgUAgEAgEAoFAIBAIBAKBQCAQCAQCgUAgEAgEAoFAIBAIBALM/wCJwDes+D0J1QAAAABJRU5ErkJggg==;" vertex="1" parent="1">
          <mxGeometry x="425" y="662" width="58" height="58" as="geometry" />
        </mxCell>
        <mxCell id="HDfnaLrlS0G8cOxsRyLn-25" value="" style="endArrow=classic;html=1;rounded=0;" edge="1" parent="1">
          <mxGeometry width="50" height="50" relative="1" as="geometry">
            <mxPoint x="585" y="695" as="sourcePoint" />
            <mxPoint x="495" y="695" as="targetPoint" />
          </mxGeometry>
        </mxCell>
        <mxCell id="HDfnaLrlS0G8cOxsRyLn-26" value="React Developer" style="text;html=1;align=center;verticalAlign=middle;whiteSpace=wrap;rounded=0;" vertex="1" parent="1">
          <mxGeometry x="592.5" y="722" width="60" height="30" as="geometry" />
        </mxCell>
        <mxCell id="HDfnaLrlS0G8cOxsRyLn-27" value="release/1.0" style="text;html=1;align=center;verticalAlign=middle;whiteSpace=wrap;rounded=0;" vertex="1" parent="1">
          <mxGeometry x="423" y="722" width="60" height="30" as="geometry" />
        </mxCell>
        <mxCell id="HDfnaLrlS0G8cOxsRyLn-28" value="feature/1.0" style="text;html=1;align=center;verticalAlign=middle;whiteSpace=wrap;rounded=0;" vertex="1" parent="1">
          <mxGeometry x="425" y="700" width="60" height="30" as="geometry" />
        </mxCell>
        <mxCell id="HDfnaLrlS0G8cOxsRyLn-29" value="main" style="text;html=1;align=center;verticalAlign=middle;whiteSpace=wrap;rounded=0;" vertex="1" parent="1">
          <mxGeometry x="405" y="734.88" width="60" height="30" as="geometry" />
        </mxCell>
        <mxCell id="HDfnaLrlS0G8cOxsRyLn-32" value="webhook" style="text;html=1;align=center;verticalAlign=middle;whiteSpace=wrap;rounded=0;" vertex="1" parent="1">
          <mxGeometry x="465" y="660" width="60" height="30" as="geometry" />
        </mxCell>
        <mxCell id="HDfnaLrlS0G8cOxsRyLn-33" value="" style="endArrow=classic;html=1;rounded=0;" edge="1" parent="1">
          <mxGeometry width="50" height="50" relative="1" as="geometry">
            <mxPoint x="420" y="690" as="sourcePoint" />
            <mxPoint x="362.5" y="690" as="targetPoint" />
          </mxGeometry>
        </mxCell>
        <mxCell id="HDfnaLrlS0G8cOxsRyLn-35" value="PR" style="text;html=1;align=center;verticalAlign=middle;whiteSpace=wrap;rounded=0;" vertex="1" parent="1">
          <mxGeometry x="465" y="713.5" width="60" height="30" as="geometry" />
        </mxCell>
        <mxCell id="HDfnaLrlS0G8cOxsRyLn-36" value="PR" style="text;html=1;align=center;verticalAlign=middle;whiteSpace=wrap;rounded=0;" vertex="1" parent="1">
          <mxGeometry x="465" y="734.88" width="60" height="30" as="geometry" />
        </mxCell>
        <mxCell id="HDfnaLrlS0G8cOxsRyLn-37" value="COMMIT" style="text;html=1;align=center;verticalAlign=middle;whiteSpace=wrap;rounded=0;" vertex="1" parent="1">
          <mxGeometry x="510" y="670" width="60" height="30" as="geometry" />
        </mxCell>
        <mxCell id="HDfnaLrlS0G8cOxsRyLn-38" value="Build,Test and Deploy" style="text;html=1;align=center;verticalAlign=middle;whiteSpace=wrap;rounded=0;" vertex="1" parent="1">
          <mxGeometry x="252.94" y="714" width="159.12" height="30" as="geometry" />
        </mxCell>
        <mxCell id="HDfnaLrlS0G8cOxsRyLn-44" value="Users" style="text;html=1;align=center;verticalAlign=middle;whiteSpace=wrap;rounded=0;" vertex="1" parent="1">
          <mxGeometry x="110.5" y="1059" width="60" height="30" as="geometry" />
        </mxCell>
      </root>
    </mxGraphModel>
  </diagram>
  <diagram id="WGIAJajRXpnt_v5iKPi0" name="Page-2">
    <mxGraphModel dx="1335" dy="599" grid="1" gridSize="19" guides="1" tooltips="1" connect="1" arrows="1" fold="1" page="1" pageScale="1" pageWidth="850" pageHeight="1400" math="0" shadow="0">
      <root>
        <mxCell id="0" />
        <mxCell id="1" parent="0" />
      </root>
    </mxGraphModel>
  </diagram>
</mxfile>
